<mxfile host="app.diagrams.net" modified="2022-11-27T00:06:41.462Z" agent="5.0 (Windows NT 10.0; Win64; x64) AppleWebKit/537.36 (KHTML, like Gecko) Chrome/107.0.0.0 Safari/537.36" etag="FmucXlzLnNJi199KeDVO" version="20.5.3" type="github" pages="3">
  <diagram id="FEU4AJqX6Oke4rKe7dPN" name="Page-1">
    <mxGraphModel dx="4722" dy="800" grid="0" gridSize="10" guides="1" tooltips="1" connect="1" arrows="1" fold="1" page="1" pageScale="1" pageWidth="3300" pageHeight="4681" math="0" shadow="0">
      <root>
        <mxCell id="0" />
        <mxCell id="1" parent="0" />
        <mxCell id="LU6wFYiVYD26gbTwDMBR-1" value="`admin_info`" style="shape=table;startSize=30;container=1;collapsible=1;childLayout=tableLayout;fixedRows=1;rowLines=0;fontStyle=1;align=center;resizeLast=1;fillColor=#d5e8d4;strokeColor=#82b366;fillStyle=auto;fontSize=17;gradientColor=#97d077;" parent="1" vertex="1">
          <mxGeometry x="-462" y="580" width="261" height="316" as="geometry">
            <mxRectangle x="-360" y="105" width="110" height="30" as="alternateBounds" />
          </mxGeometry>
        </mxCell>
        <mxCell id="LU6wFYiVYD26gbTwDMBR-2" value="" style="shape=tableRow;horizontal=0;startSize=0;swimlaneHead=0;swimlaneBody=0;fillColor=none;collapsible=0;dropTarget=0;points=[[0,0.5],[1,0.5]];portConstraint=eastwest;top=0;left=0;right=0;bottom=0;" parent="LU6wFYiVYD26gbTwDMBR-1" vertex="1">
          <mxGeometry y="30" width="261" height="30" as="geometry" />
        </mxCell>
        <mxCell id="LU6wFYiVYD26gbTwDMBR-3" value="PK" style="shape=partialRectangle;overflow=hidden;connectable=0;fillColor=none;top=0;left=0;bottom=0;right=0;" parent="LU6wFYiVYD26gbTwDMBR-2" vertex="1">
          <mxGeometry width="30" height="30" as="geometry">
            <mxRectangle width="30" height="30" as="alternateBounds" />
          </mxGeometry>
        </mxCell>
        <mxCell id="LU6wFYiVYD26gbTwDMBR-4" value="`admin_id` int(11) " style="shape=partialRectangle;overflow=hidden;connectable=0;fillColor=none;align=left;top=0;left=0;bottom=0;right=0;spacingLeft=6;fontStyle=1;fontSize=15;" parent="LU6wFYiVYD26gbTwDMBR-2" vertex="1">
          <mxGeometry x="30" width="231" height="30" as="geometry">
            <mxRectangle width="231" height="30" as="alternateBounds" />
          </mxGeometry>
        </mxCell>
        <mxCell id="LU6wFYiVYD26gbTwDMBR-5" value="" style="shape=tableRow;horizontal=0;startSize=0;swimlaneHead=0;swimlaneBody=0;fillColor=none;collapsible=0;dropTarget=0;points=[[0,0.5],[1,0.5]];portConstraint=eastwest;top=0;left=0;right=0;bottom=0;" parent="LU6wFYiVYD26gbTwDMBR-1" vertex="1">
          <mxGeometry y="60" width="261" height="30" as="geometry" />
        </mxCell>
        <mxCell id="LU6wFYiVYD26gbTwDMBR-6" value="" style="shape=partialRectangle;overflow=hidden;connectable=0;fillColor=none;top=0;left=0;bottom=0;right=0;" parent="LU6wFYiVYD26gbTwDMBR-5" vertex="1">
          <mxGeometry width="30" height="30" as="geometry">
            <mxRectangle width="30" height="30" as="alternateBounds" />
          </mxGeometry>
        </mxCell>
        <mxCell id="LU6wFYiVYD26gbTwDMBR-7" value="`admin_username` varchar(100) " style="shape=partialRectangle;overflow=hidden;connectable=0;fillColor=none;align=left;top=0;left=0;bottom=0;right=0;spacingLeft=6;fontSize=15;" parent="LU6wFYiVYD26gbTwDMBR-5" vertex="1">
          <mxGeometry x="30" width="231" height="30" as="geometry">
            <mxRectangle width="231" height="30" as="alternateBounds" />
          </mxGeometry>
        </mxCell>
        <mxCell id="LU6wFYiVYD26gbTwDMBR-8" value="" style="shape=tableRow;horizontal=0;startSize=0;swimlaneHead=0;swimlaneBody=0;fillColor=none;collapsible=0;dropTarget=0;points=[[0,0.5],[1,0.5]];portConstraint=eastwest;top=0;left=0;right=0;bottom=0;" parent="LU6wFYiVYD26gbTwDMBR-1" vertex="1">
          <mxGeometry y="90" width="261" height="30" as="geometry" />
        </mxCell>
        <mxCell id="LU6wFYiVYD26gbTwDMBR-9" value="" style="shape=partialRectangle;overflow=hidden;connectable=0;fillColor=none;top=0;left=0;bottom=0;right=0;" parent="LU6wFYiVYD26gbTwDMBR-8" vertex="1">
          <mxGeometry width="30" height="30" as="geometry">
            <mxRectangle width="30" height="30" as="alternateBounds" />
          </mxGeometry>
        </mxCell>
        <mxCell id="LU6wFYiVYD26gbTwDMBR-10" value="`admin_email` varchar(255) " style="shape=partialRectangle;overflow=hidden;connectable=0;fillColor=none;align=left;top=0;left=0;bottom=0;right=0;spacingLeft=6;fontSize=15;" parent="LU6wFYiVYD26gbTwDMBR-8" vertex="1">
          <mxGeometry x="30" width="231" height="30" as="geometry">
            <mxRectangle width="231" height="30" as="alternateBounds" />
          </mxGeometry>
        </mxCell>
        <mxCell id="LU6wFYiVYD26gbTwDMBR-11" value="" style="shape=tableRow;horizontal=0;startSize=0;swimlaneHead=0;swimlaneBody=0;fillColor=none;collapsible=0;dropTarget=0;points=[[0,0.5],[1,0.5]];portConstraint=eastwest;top=0;left=0;right=0;bottom=0;" parent="LU6wFYiVYD26gbTwDMBR-1" vertex="1">
          <mxGeometry y="120" width="261" height="30" as="geometry" />
        </mxCell>
        <mxCell id="LU6wFYiVYD26gbTwDMBR-12" value="" style="shape=partialRectangle;overflow=hidden;connectable=0;fillColor=none;top=0;left=0;bottom=0;right=0;" parent="LU6wFYiVYD26gbTwDMBR-11" vertex="1">
          <mxGeometry width="30" height="30" as="geometry">
            <mxRectangle width="30" height="30" as="alternateBounds" />
          </mxGeometry>
        </mxCell>
        <mxCell id="LU6wFYiVYD26gbTwDMBR-13" value="`admin_password` varchar(255) " style="shape=partialRectangle;overflow=hidden;connectable=0;fillColor=none;align=left;top=0;left=0;bottom=0;right=0;spacingLeft=6;fontSize=15;" parent="LU6wFYiVYD26gbTwDMBR-11" vertex="1">
          <mxGeometry x="30" width="231" height="30" as="geometry">
            <mxRectangle width="231" height="30" as="alternateBounds" />
          </mxGeometry>
        </mxCell>
        <mxCell id="LU6wFYiVYD26gbTwDMBR-14" value="" style="shape=tableRow;horizontal=0;startSize=0;swimlaneHead=0;swimlaneBody=0;fillColor=none;collapsible=0;dropTarget=0;points=[[0,0.5],[1,0.5]];portConstraint=eastwest;top=0;left=0;right=0;bottom=0;" parent="LU6wFYiVYD26gbTwDMBR-1" vertex="1">
          <mxGeometry y="150" width="261" height="30" as="geometry" />
        </mxCell>
        <mxCell id="LU6wFYiVYD26gbTwDMBR-15" value="" style="shape=partialRectangle;overflow=hidden;connectable=0;fillColor=none;top=0;left=0;bottom=0;right=0;" parent="LU6wFYiVYD26gbTwDMBR-14" vertex="1">
          <mxGeometry width="30" height="30" as="geometry">
            <mxRectangle width="30" height="30" as="alternateBounds" />
          </mxGeometry>
        </mxCell>
        <mxCell id="LU6wFYiVYD26gbTwDMBR-16" value="`admin_image` varchar(255) " style="shape=partialRectangle;overflow=hidden;connectable=0;fillColor=none;align=left;top=0;left=0;bottom=0;right=0;spacingLeft=6;fontSize=15;" parent="LU6wFYiVYD26gbTwDMBR-14" vertex="1">
          <mxGeometry x="30" width="231" height="30" as="geometry">
            <mxRectangle width="231" height="30" as="alternateBounds" />
          </mxGeometry>
        </mxCell>
        <mxCell id="LU6wFYiVYD26gbTwDMBR-20" value="" style="shape=tableRow;horizontal=0;startSize=0;swimlaneHead=0;swimlaneBody=0;fillColor=none;collapsible=0;dropTarget=0;points=[[0,0.5],[1,0.5]];portConstraint=eastwest;top=0;left=0;right=0;bottom=0;" parent="LU6wFYiVYD26gbTwDMBR-1" vertex="1">
          <mxGeometry y="180" width="261" height="30" as="geometry" />
        </mxCell>
        <mxCell id="LU6wFYiVYD26gbTwDMBR-21" value="FK" style="shape=partialRectangle;overflow=hidden;connectable=0;fillColor=none;top=0;left=0;bottom=0;right=0;" parent="LU6wFYiVYD26gbTwDMBR-20" vertex="1">
          <mxGeometry width="30" height="30" as="geometry">
            <mxRectangle width="30" height="30" as="alternateBounds" />
          </mxGeometry>
        </mxCell>
        <mxCell id="LU6wFYiVYD26gbTwDMBR-22" value="`company_name` varchar(100) " style="shape=partialRectangle;overflow=hidden;connectable=0;fillColor=none;align=left;top=0;left=0;bottom=0;right=0;spacingLeft=6;fontSize=15;" parent="LU6wFYiVYD26gbTwDMBR-20" vertex="1">
          <mxGeometry x="30" width="231" height="30" as="geometry">
            <mxRectangle width="231" height="30" as="alternateBounds" />
          </mxGeometry>
        </mxCell>
        <mxCell id="LU6wFYiVYD26gbTwDMBR-17" value="" style="shape=tableRow;horizontal=0;startSize=0;swimlaneHead=0;swimlaneBody=0;fillColor=none;collapsible=0;dropTarget=0;points=[[0,0.5],[1,0.5]];portConstraint=eastwest;top=0;left=0;right=0;bottom=0;" parent="LU6wFYiVYD26gbTwDMBR-1" vertex="1">
          <mxGeometry y="210" width="261" height="30" as="geometry" />
        </mxCell>
        <mxCell id="LU6wFYiVYD26gbTwDMBR-18" value="" style="shape=partialRectangle;overflow=hidden;connectable=0;fillColor=none;top=0;left=0;bottom=0;right=0;" parent="LU6wFYiVYD26gbTwDMBR-17" vertex="1">
          <mxGeometry width="30" height="30" as="geometry">
            <mxRectangle width="30" height="30" as="alternateBounds" />
          </mxGeometry>
        </mxCell>
        <mxCell id="LU6wFYiVYD26gbTwDMBR-19" value="`admin_ip_address` varchar(100) " style="shape=partialRectangle;overflow=hidden;connectable=0;fillColor=none;align=left;top=0;left=0;bottom=0;right=0;spacingLeft=6;fontSize=15;" parent="LU6wFYiVYD26gbTwDMBR-17" vertex="1">
          <mxGeometry x="30" width="231" height="30" as="geometry">
            <mxRectangle width="231" height="30" as="alternateBounds" />
          </mxGeometry>
        </mxCell>
        <mxCell id="LU6wFYiVYD26gbTwDMBR-23" value="" style="shape=tableRow;horizontal=0;startSize=0;swimlaneHead=0;swimlaneBody=0;fillColor=none;collapsible=0;dropTarget=0;points=[[0,0.5],[1,0.5]];portConstraint=eastwest;top=0;left=0;right=0;bottom=0;" parent="LU6wFYiVYD26gbTwDMBR-1" vertex="1">
          <mxGeometry y="240" width="261" height="30" as="geometry" />
        </mxCell>
        <mxCell id="LU6wFYiVYD26gbTwDMBR-24" value="" style="shape=partialRectangle;overflow=hidden;connectable=0;fillColor=none;top=0;left=0;bottom=0;right=0;" parent="LU6wFYiVYD26gbTwDMBR-23" vertex="1">
          <mxGeometry width="30" height="30" as="geometry">
            <mxRectangle width="30" height="30" as="alternateBounds" />
          </mxGeometry>
        </mxCell>
        <mxCell id="LU6wFYiVYD26gbTwDMBR-25" value="`company_address` varchar(100) " style="shape=partialRectangle;overflow=hidden;connectable=0;fillColor=none;align=left;top=0;left=0;bottom=0;right=0;spacingLeft=6;fontSize=15;" parent="LU6wFYiVYD26gbTwDMBR-23" vertex="1">
          <mxGeometry x="30" width="231" height="30" as="geometry">
            <mxRectangle width="231" height="30" as="alternateBounds" />
          </mxGeometry>
        </mxCell>
        <mxCell id="LU6wFYiVYD26gbTwDMBR-26" value="" style="shape=tableRow;horizontal=0;startSize=0;swimlaneHead=0;swimlaneBody=0;fillColor=none;collapsible=0;dropTarget=0;points=[[0,0.5],[1,0.5]];portConstraint=eastwest;top=0;left=0;right=0;bottom=0;" parent="LU6wFYiVYD26gbTwDMBR-1" vertex="1">
          <mxGeometry y="270" width="261" height="30" as="geometry" />
        </mxCell>
        <mxCell id="LU6wFYiVYD26gbTwDMBR-27" value="" style="shape=partialRectangle;overflow=hidden;connectable=0;fillColor=none;top=0;left=0;bottom=0;right=0;" parent="LU6wFYiVYD26gbTwDMBR-26" vertex="1">
          <mxGeometry width="30" height="30" as="geometry">
            <mxRectangle width="30" height="30" as="alternateBounds" />
          </mxGeometry>
        </mxCell>
        <mxCell id="LU6wFYiVYD26gbTwDMBR-28" value="`contact_no` int(100) " style="shape=partialRectangle;overflow=hidden;connectable=0;fillColor=none;align=left;top=0;left=0;bottom=0;right=0;spacingLeft=6;fontSize=15;" parent="LU6wFYiVYD26gbTwDMBR-26" vertex="1">
          <mxGeometry x="30" width="231" height="30" as="geometry">
            <mxRectangle width="231" height="30" as="alternateBounds" />
          </mxGeometry>
        </mxCell>
        <mxCell id="LU6wFYiVYD26gbTwDMBR-29" value="`biproducts`" style="shape=table;startSize=30;container=1;collapsible=1;childLayout=tableLayout;fixedRows=1;rowLines=0;fontStyle=1;align=center;resizeLast=1;fillColor=#d5e8d4;strokeColor=#82b366;fontSize=17;gradientColor=#97d077;" parent="1" vertex="1">
          <mxGeometry x="-42" y="450" width="330" height="440" as="geometry" />
        </mxCell>
        <mxCell id="LU6wFYiVYD26gbTwDMBR-30" value="" style="shape=tableRow;horizontal=0;startSize=0;swimlaneHead=0;swimlaneBody=0;fillColor=none;collapsible=0;dropTarget=0;points=[[0,0.5],[1,0.5]];portConstraint=eastwest;top=0;left=0;right=0;bottom=0;" parent="LU6wFYiVYD26gbTwDMBR-29" vertex="1">
          <mxGeometry y="30" width="330" height="30" as="geometry" />
        </mxCell>
        <mxCell id="LU6wFYiVYD26gbTwDMBR-31" value="PK" style="shape=partialRectangle;overflow=hidden;connectable=0;fillColor=none;top=0;left=0;bottom=0;right=0;" parent="LU6wFYiVYD26gbTwDMBR-30" vertex="1">
          <mxGeometry width="30" height="30" as="geometry">
            <mxRectangle width="30" height="30" as="alternateBounds" />
          </mxGeometry>
        </mxCell>
        <mxCell id="LU6wFYiVYD26gbTwDMBR-32" value="`Biproduct_id` int(11) " style="shape=partialRectangle;overflow=hidden;connectable=0;fillColor=none;align=left;top=0;left=0;bottom=0;right=0;spacingLeft=6;fontStyle=1;fontSize=15;" parent="LU6wFYiVYD26gbTwDMBR-30" vertex="1">
          <mxGeometry x="30" width="300" height="30" as="geometry">
            <mxRectangle width="300" height="30" as="alternateBounds" />
          </mxGeometry>
        </mxCell>
        <mxCell id="LU6wFYiVYD26gbTwDMBR-33" value="" style="shape=tableRow;horizontal=0;startSize=0;swimlaneHead=0;swimlaneBody=0;fillColor=none;collapsible=0;dropTarget=0;points=[[0,0.5],[1,0.5]];portConstraint=eastwest;top=0;left=0;right=0;bottom=0;" parent="LU6wFYiVYD26gbTwDMBR-29" vertex="1">
          <mxGeometry y="60" width="330" height="30" as="geometry" />
        </mxCell>
        <mxCell id="LU6wFYiVYD26gbTwDMBR-34" value="" style="shape=partialRectangle;overflow=hidden;connectable=0;fillColor=none;top=0;left=0;bottom=0;right=0;" parent="LU6wFYiVYD26gbTwDMBR-33" vertex="1">
          <mxGeometry width="30" height="30" as="geometry">
            <mxRectangle width="30" height="30" as="alternateBounds" />
          </mxGeometry>
        </mxCell>
        <mxCell id="LU6wFYiVYD26gbTwDMBR-35" value="`BiproductName` varchar" style="shape=partialRectangle;overflow=hidden;connectable=0;fillColor=none;align=left;top=0;left=0;bottom=0;right=0;spacingLeft=6;fontSize=15;" parent="LU6wFYiVYD26gbTwDMBR-33" vertex="1">
          <mxGeometry x="30" width="300" height="30" as="geometry">
            <mxRectangle width="300" height="30" as="alternateBounds" />
          </mxGeometry>
        </mxCell>
        <mxCell id="LU6wFYiVYD26gbTwDMBR-36" value="" style="shape=tableRow;horizontal=0;startSize=0;swimlaneHead=0;swimlaneBody=0;fillColor=none;collapsible=0;dropTarget=0;points=[[0,0.5],[1,0.5]];portConstraint=eastwest;top=0;left=0;right=0;bottom=0;" parent="LU6wFYiVYD26gbTwDMBR-29" vertex="1">
          <mxGeometry y="90" width="330" height="30" as="geometry" />
        </mxCell>
        <mxCell id="LU6wFYiVYD26gbTwDMBR-37" value="FK" style="shape=partialRectangle;overflow=hidden;connectable=0;fillColor=none;top=0;left=0;bottom=0;right=0;" parent="LU6wFYiVYD26gbTwDMBR-36" vertex="1">
          <mxGeometry width="30" height="30" as="geometry">
            <mxRectangle width="30" height="30" as="alternateBounds" />
          </mxGeometry>
        </mxCell>
        <mxCell id="LU6wFYiVYD26gbTwDMBR-38" value="`catergory_id` int(11) " style="shape=partialRectangle;overflow=hidden;connectable=0;fillColor=none;align=left;top=0;left=0;bottom=0;right=0;spacingLeft=6;fontSize=15;" parent="LU6wFYiVYD26gbTwDMBR-36" vertex="1">
          <mxGeometry x="30" width="300" height="30" as="geometry">
            <mxRectangle width="300" height="30" as="alternateBounds" />
          </mxGeometry>
        </mxCell>
        <mxCell id="LU6wFYiVYD26gbTwDMBR-39" value="" style="shape=tableRow;horizontal=0;startSize=0;swimlaneHead=0;swimlaneBody=0;fillColor=none;collapsible=0;dropTarget=0;points=[[0,0.5],[1,0.5]];portConstraint=eastwest;top=0;left=0;right=0;bottom=0;" parent="LU6wFYiVYD26gbTwDMBR-29" vertex="1">
          <mxGeometry y="120" width="330" height="30" as="geometry" />
        </mxCell>
        <mxCell id="LU6wFYiVYD26gbTwDMBR-40" value="" style="shape=partialRectangle;overflow=hidden;connectable=0;fillColor=none;top=0;left=0;bottom=0;right=0;" parent="LU6wFYiVYD26gbTwDMBR-39" vertex="1">
          <mxGeometry width="30" height="30" as="geometry">
            <mxRectangle width="30" height="30" as="alternateBounds" />
          </mxGeometry>
        </mxCell>
        <mxCell id="LU6wFYiVYD26gbTwDMBR-41" value="`Biproduct_Description` varchar(500) " style="shape=partialRectangle;overflow=hidden;connectable=0;fillColor=none;align=left;top=0;left=0;bottom=0;right=0;spacingLeft=6;fontSize=15;" parent="LU6wFYiVYD26gbTwDMBR-39" vertex="1">
          <mxGeometry x="30" width="300" height="30" as="geometry">
            <mxRectangle width="300" height="30" as="alternateBounds" />
          </mxGeometry>
        </mxCell>
        <mxCell id="LU6wFYiVYD26gbTwDMBR-42" value="" style="shape=tableRow;horizontal=0;startSize=0;swimlaneHead=0;swimlaneBody=0;fillColor=none;collapsible=0;dropTarget=0;points=[[0,0.5],[1,0.5]];portConstraint=eastwest;top=0;left=0;right=0;bottom=0;" parent="LU6wFYiVYD26gbTwDMBR-29" vertex="1">
          <mxGeometry y="150" width="330" height="30" as="geometry" />
        </mxCell>
        <mxCell id="LU6wFYiVYD26gbTwDMBR-43" value="" style="shape=partialRectangle;overflow=hidden;connectable=0;fillColor=none;top=0;left=0;bottom=0;right=0;" parent="LU6wFYiVYD26gbTwDMBR-42" vertex="1">
          <mxGeometry width="30" height="30" as="geometry">
            <mxRectangle width="30" height="30" as="alternateBounds" />
          </mxGeometry>
        </mxCell>
        <mxCell id="LU6wFYiVYD26gbTwDMBR-44" value="`brand_id` int(11)" style="shape=partialRectangle;overflow=hidden;connectable=0;fillColor=none;align=left;top=0;left=0;bottom=0;right=0;spacingLeft=6;fontSize=15;" parent="LU6wFYiVYD26gbTwDMBR-42" vertex="1">
          <mxGeometry x="30" width="300" height="30" as="geometry">
            <mxRectangle width="300" height="30" as="alternateBounds" />
          </mxGeometry>
        </mxCell>
        <mxCell id="LU6wFYiVYD26gbTwDMBR-45" value="" style="shape=tableRow;horizontal=0;startSize=0;swimlaneHead=0;swimlaneBody=0;fillColor=none;collapsible=0;dropTarget=0;points=[[0,0.5],[1,0.5]];portConstraint=eastwest;top=0;left=0;right=0;bottom=0;" parent="LU6wFYiVYD26gbTwDMBR-29" vertex="1">
          <mxGeometry y="180" width="330" height="30" as="geometry" />
        </mxCell>
        <mxCell id="LU6wFYiVYD26gbTwDMBR-46" value="" style="shape=partialRectangle;overflow=hidden;connectable=0;fillColor=none;top=0;left=0;bottom=0;right=0;" parent="LU6wFYiVYD26gbTwDMBR-45" vertex="1">
          <mxGeometry width="30" height="30" as="geometry">
            <mxRectangle width="30" height="30" as="alternateBounds" />
          </mxGeometry>
        </mxCell>
        <mxCell id="LU6wFYiVYD26gbTwDMBR-47" value="`product_keyword` varchar(100) " style="shape=partialRectangle;overflow=hidden;connectable=0;fillColor=none;align=left;top=0;left=0;bottom=0;right=0;spacingLeft=6;fontSize=15;" parent="LU6wFYiVYD26gbTwDMBR-45" vertex="1">
          <mxGeometry x="30" width="300" height="30" as="geometry">
            <mxRectangle width="300" height="30" as="alternateBounds" />
          </mxGeometry>
        </mxCell>
        <mxCell id="LU6wFYiVYD26gbTwDMBR-48" value="" style="shape=tableRow;horizontal=0;startSize=0;swimlaneHead=0;swimlaneBody=0;fillColor=none;collapsible=0;dropTarget=0;points=[[0,0.5],[1,0.5]];portConstraint=eastwest;top=0;left=0;right=0;bottom=0;" parent="LU6wFYiVYD26gbTwDMBR-29" vertex="1">
          <mxGeometry y="210" width="330" height="30" as="geometry" />
        </mxCell>
        <mxCell id="LU6wFYiVYD26gbTwDMBR-49" value="" style="shape=partialRectangle;overflow=hidden;connectable=0;fillColor=none;top=0;left=0;bottom=0;right=0;" parent="LU6wFYiVYD26gbTwDMBR-48" vertex="1">
          <mxGeometry width="30" height="30" as="geometry">
            <mxRectangle width="30" height="30" as="alternateBounds" />
          </mxGeometry>
        </mxCell>
        <mxCell id="LU6wFYiVYD26gbTwDMBR-50" value="`product_img1` varchar(100) " style="shape=partialRectangle;overflow=hidden;connectable=0;fillColor=none;align=left;top=0;left=0;bottom=0;right=0;spacingLeft=6;fontSize=15;" parent="LU6wFYiVYD26gbTwDMBR-48" vertex="1">
          <mxGeometry x="30" width="300" height="30" as="geometry">
            <mxRectangle width="300" height="30" as="alternateBounds" />
          </mxGeometry>
        </mxCell>
        <mxCell id="LU6wFYiVYD26gbTwDMBR-51" value="" style="shape=tableRow;horizontal=0;startSize=0;swimlaneHead=0;swimlaneBody=0;fillColor=none;collapsible=0;dropTarget=0;points=[[0,0.5],[1,0.5]];portConstraint=eastwest;top=0;left=0;right=0;bottom=0;" parent="LU6wFYiVYD26gbTwDMBR-29" vertex="1">
          <mxGeometry y="240" width="330" height="30" as="geometry" />
        </mxCell>
        <mxCell id="LU6wFYiVYD26gbTwDMBR-52" value="" style="shape=partialRectangle;overflow=hidden;connectable=0;fillColor=none;top=0;left=0;bottom=0;right=0;" parent="LU6wFYiVYD26gbTwDMBR-51" vertex="1">
          <mxGeometry width="30" height="30" as="geometry">
            <mxRectangle width="30" height="30" as="alternateBounds" />
          </mxGeometry>
        </mxCell>
        <mxCell id="LU6wFYiVYD26gbTwDMBR-53" value="`product_img2` varchar(100) " style="shape=partialRectangle;overflow=hidden;connectable=0;fillColor=none;align=left;top=0;left=0;bottom=0;right=0;spacingLeft=6;fontSize=15;" parent="LU6wFYiVYD26gbTwDMBR-51" vertex="1">
          <mxGeometry x="30" width="300" height="30" as="geometry">
            <mxRectangle width="300" height="30" as="alternateBounds" />
          </mxGeometry>
        </mxCell>
        <mxCell id="LU6wFYiVYD26gbTwDMBR-54" value="" style="shape=tableRow;horizontal=0;startSize=0;swimlaneHead=0;swimlaneBody=0;fillColor=none;collapsible=0;dropTarget=0;points=[[0,0.5],[1,0.5]];portConstraint=eastwest;top=0;left=0;right=0;bottom=0;" parent="LU6wFYiVYD26gbTwDMBR-29" vertex="1">
          <mxGeometry y="270" width="330" height="30" as="geometry" />
        </mxCell>
        <mxCell id="LU6wFYiVYD26gbTwDMBR-55" value="" style="shape=partialRectangle;overflow=hidden;connectable=0;fillColor=none;top=0;left=0;bottom=0;right=0;" parent="LU6wFYiVYD26gbTwDMBR-54" vertex="1">
          <mxGeometry width="30" height="30" as="geometry">
            <mxRectangle width="30" height="30" as="alternateBounds" />
          </mxGeometry>
        </mxCell>
        <mxCell id="LU6wFYiVYD26gbTwDMBR-56" value="`product_img3` varchar(100) " style="shape=partialRectangle;overflow=hidden;connectable=0;fillColor=none;align=left;top=0;left=0;bottom=0;right=0;spacingLeft=6;fontSize=15;" parent="LU6wFYiVYD26gbTwDMBR-54" vertex="1">
          <mxGeometry x="30" width="300" height="30" as="geometry">
            <mxRectangle width="300" height="30" as="alternateBounds" />
          </mxGeometry>
        </mxCell>
        <mxCell id="LU6wFYiVYD26gbTwDMBR-57" value="" style="shape=tableRow;horizontal=0;startSize=0;swimlaneHead=0;swimlaneBody=0;fillColor=none;collapsible=0;dropTarget=0;points=[[0,0.5],[1,0.5]];portConstraint=eastwest;top=0;left=0;right=0;bottom=0;" parent="LU6wFYiVYD26gbTwDMBR-29" vertex="1">
          <mxGeometry y="300" width="330" height="30" as="geometry" />
        </mxCell>
        <mxCell id="LU6wFYiVYD26gbTwDMBR-58" value="" style="shape=partialRectangle;overflow=hidden;connectable=0;fillColor=none;top=0;left=0;bottom=0;right=0;" parent="LU6wFYiVYD26gbTwDMBR-57" vertex="1">
          <mxGeometry width="30" height="30" as="geometry">
            <mxRectangle width="30" height="30" as="alternateBounds" />
          </mxGeometry>
        </mxCell>
        <mxCell id="LU6wFYiVYD26gbTwDMBR-59" value="`price` int(11) " style="shape=partialRectangle;overflow=hidden;connectable=0;fillColor=none;align=left;top=0;left=0;bottom=0;right=0;spacingLeft=6;fontSize=15;" parent="LU6wFYiVYD26gbTwDMBR-57" vertex="1">
          <mxGeometry x="30" width="300" height="30" as="geometry">
            <mxRectangle width="300" height="30" as="alternateBounds" />
          </mxGeometry>
        </mxCell>
        <mxCell id="LU6wFYiVYD26gbTwDMBR-60" value="" style="shape=tableRow;horizontal=0;startSize=0;swimlaneHead=0;swimlaneBody=0;fillColor=none;collapsible=0;dropTarget=0;points=[[0,0.5],[1,0.5]];portConstraint=eastwest;top=0;left=0;right=0;bottom=0;" parent="LU6wFYiVYD26gbTwDMBR-29" vertex="1">
          <mxGeometry y="330" width="330" height="30" as="geometry" />
        </mxCell>
        <mxCell id="LU6wFYiVYD26gbTwDMBR-61" value="" style="shape=partialRectangle;overflow=hidden;connectable=0;fillColor=none;top=0;left=0;bottom=0;right=0;" parent="LU6wFYiVYD26gbTwDMBR-60" vertex="1">
          <mxGeometry width="30" height="30" as="geometry">
            <mxRectangle width="30" height="30" as="alternateBounds" />
          </mxGeometry>
        </mxCell>
        <mxCell id="LU6wFYiVYD26gbTwDMBR-62" value="`date` " style="shape=partialRectangle;overflow=hidden;connectable=0;fillColor=none;align=left;top=0;left=0;bottom=0;right=0;spacingLeft=6;fontSize=15;" parent="LU6wFYiVYD26gbTwDMBR-60" vertex="1">
          <mxGeometry x="30" width="300" height="30" as="geometry">
            <mxRectangle width="300" height="30" as="alternateBounds" />
          </mxGeometry>
        </mxCell>
        <mxCell id="LU6wFYiVYD26gbTwDMBR-63" value="" style="shape=tableRow;horizontal=0;startSize=0;swimlaneHead=0;swimlaneBody=0;fillColor=none;collapsible=0;dropTarget=0;points=[[0,0.5],[1,0.5]];portConstraint=eastwest;top=0;left=0;right=0;bottom=0;" parent="LU6wFYiVYD26gbTwDMBR-29" vertex="1">
          <mxGeometry y="360" width="330" height="30" as="geometry" />
        </mxCell>
        <mxCell id="LU6wFYiVYD26gbTwDMBR-64" value="" style="shape=partialRectangle;overflow=hidden;connectable=0;fillColor=none;top=0;left=0;bottom=0;right=0;" parent="LU6wFYiVYD26gbTwDMBR-63" vertex="1">
          <mxGeometry width="30" height="30" as="geometry">
            <mxRectangle width="30" height="30" as="alternateBounds" />
          </mxGeometry>
        </mxCell>
        <mxCell id="LU6wFYiVYD26gbTwDMBR-65" value="`status` varchar(11)" style="shape=partialRectangle;overflow=hidden;connectable=0;fillColor=none;align=left;top=0;left=0;bottom=0;right=0;spacingLeft=6;fontSize=15;" parent="LU6wFYiVYD26gbTwDMBR-63" vertex="1">
          <mxGeometry x="30" width="300" height="30" as="geometry">
            <mxRectangle width="300" height="30" as="alternateBounds" />
          </mxGeometry>
        </mxCell>
        <mxCell id="LU6wFYiVYD26gbTwDMBR-66" value="" style="shape=tableRow;horizontal=0;startSize=0;swimlaneHead=0;swimlaneBody=0;fillColor=none;collapsible=0;dropTarget=0;points=[[0,0.5],[1,0.5]];portConstraint=eastwest;top=0;left=0;right=0;bottom=0;" parent="LU6wFYiVYD26gbTwDMBR-29" vertex="1">
          <mxGeometry y="390" width="330" height="30" as="geometry" />
        </mxCell>
        <mxCell id="LU6wFYiVYD26gbTwDMBR-67" value="" style="shape=partialRectangle;overflow=hidden;connectable=0;fillColor=none;top=0;left=0;bottom=0;right=0;" parent="LU6wFYiVYD26gbTwDMBR-66" vertex="1">
          <mxGeometry width="30" height="30" as="geometry">
            <mxRectangle width="30" height="30" as="alternateBounds" />
          </mxGeometry>
        </mxCell>
        <mxCell id="LU6wFYiVYD26gbTwDMBR-68" value="`stocks` int(11) " style="shape=partialRectangle;overflow=hidden;connectable=0;fillColor=none;align=left;top=0;left=0;bottom=0;right=0;spacingLeft=6;fontSize=15;" parent="LU6wFYiVYD26gbTwDMBR-66" vertex="1">
          <mxGeometry x="30" width="300" height="30" as="geometry">
            <mxRectangle width="300" height="30" as="alternateBounds" />
          </mxGeometry>
        </mxCell>
        <mxCell id="LU6wFYiVYD26gbTwDMBR-69" value="`brand`" style="shape=table;startSize=30;container=1;collapsible=1;childLayout=tableLayout;fixedRows=1;rowLines=0;fontStyle=1;align=center;resizeLast=1;fillColor=#d5e8d4;strokeColor=#82b366;fontSize=17;gradientColor=#97d077;" parent="1" vertex="1">
          <mxGeometry x="-420" y="400" width="290" height="160" as="geometry" />
        </mxCell>
        <mxCell id="LU6wFYiVYD26gbTwDMBR-70" value="" style="shape=tableRow;horizontal=0;startSize=0;swimlaneHead=0;swimlaneBody=0;fillColor=none;collapsible=0;dropTarget=0;points=[[0,0.5],[1,0.5]];portConstraint=eastwest;top=0;left=0;right=0;bottom=0;" parent="LU6wFYiVYD26gbTwDMBR-69" vertex="1">
          <mxGeometry y="30" width="290" height="30" as="geometry" />
        </mxCell>
        <mxCell id="LU6wFYiVYD26gbTwDMBR-71" value="PK" style="shape=partialRectangle;overflow=hidden;connectable=0;fillColor=none;top=0;left=0;bottom=0;right=0;" parent="LU6wFYiVYD26gbTwDMBR-70" vertex="1">
          <mxGeometry width="30" height="30" as="geometry">
            <mxRectangle width="30" height="30" as="alternateBounds" />
          </mxGeometry>
        </mxCell>
        <mxCell id="LU6wFYiVYD26gbTwDMBR-72" value="`brand_id` int(11) " style="shape=partialRectangle;overflow=hidden;connectable=0;fillColor=none;align=left;top=0;left=0;bottom=0;right=0;spacingLeft=6;fontStyle=1;fontSize=15;" parent="LU6wFYiVYD26gbTwDMBR-70" vertex="1">
          <mxGeometry x="30" width="260" height="30" as="geometry">
            <mxRectangle width="260" height="30" as="alternateBounds" />
          </mxGeometry>
        </mxCell>
        <mxCell id="LU6wFYiVYD26gbTwDMBR-73" value="" style="shape=tableRow;horizontal=0;startSize=0;swimlaneHead=0;swimlaneBody=0;fillColor=none;collapsible=0;dropTarget=0;points=[[0,0.5],[1,0.5]];portConstraint=eastwest;top=0;left=0;right=0;bottom=0;" parent="LU6wFYiVYD26gbTwDMBR-69" vertex="1">
          <mxGeometry y="60" width="290" height="30" as="geometry" />
        </mxCell>
        <mxCell id="LU6wFYiVYD26gbTwDMBR-74" value="" style="shape=partialRectangle;overflow=hidden;connectable=0;fillColor=none;top=0;left=0;bottom=0;right=0;" parent="LU6wFYiVYD26gbTwDMBR-73" vertex="1">
          <mxGeometry width="30" height="30" as="geometry">
            <mxRectangle width="30" height="30" as="alternateBounds" />
          </mxGeometry>
        </mxCell>
        <mxCell id="LU6wFYiVYD26gbTwDMBR-75" value="`brand_title` varchar(100) " style="shape=partialRectangle;overflow=hidden;connectable=0;fillColor=none;align=left;top=0;left=0;bottom=0;right=0;spacingLeft=6;fontSize=15;" parent="LU6wFYiVYD26gbTwDMBR-73" vertex="1">
          <mxGeometry x="30" width="260" height="30" as="geometry">
            <mxRectangle width="260" height="30" as="alternateBounds" />
          </mxGeometry>
        </mxCell>
        <mxCell id="LU6wFYiVYD26gbTwDMBR-76" value="" style="shape=tableRow;horizontal=0;startSize=0;swimlaneHead=0;swimlaneBody=0;fillColor=none;collapsible=0;dropTarget=0;points=[[0,0.5],[1,0.5]];portConstraint=eastwest;top=0;left=0;right=0;bottom=0;" parent="LU6wFYiVYD26gbTwDMBR-69" vertex="1">
          <mxGeometry y="90" width="290" height="30" as="geometry" />
        </mxCell>
        <mxCell id="LU6wFYiVYD26gbTwDMBR-77" value="" style="shape=partialRectangle;overflow=hidden;connectable=0;fillColor=none;top=0;left=0;bottom=0;right=0;" parent="LU6wFYiVYD26gbTwDMBR-76" vertex="1">
          <mxGeometry width="30" height="30" as="geometry">
            <mxRectangle width="30" height="30" as="alternateBounds" />
          </mxGeometry>
        </mxCell>
        <mxCell id="LU6wFYiVYD26gbTwDMBR-78" value="`brand_description` varchar(100) " style="shape=partialRectangle;overflow=hidden;connectable=0;fillColor=none;align=left;top=0;left=0;bottom=0;right=0;spacingLeft=6;fontSize=15;" parent="LU6wFYiVYD26gbTwDMBR-76" vertex="1">
          <mxGeometry x="30" width="260" height="30" as="geometry">
            <mxRectangle width="260" height="30" as="alternateBounds" />
          </mxGeometry>
        </mxCell>
        <mxCell id="LU6wFYiVYD26gbTwDMBR-79" value="" style="shape=tableRow;horizontal=0;startSize=0;swimlaneHead=0;swimlaneBody=0;fillColor=none;collapsible=0;dropTarget=0;points=[[0,0.5],[1,0.5]];portConstraint=eastwest;top=0;left=0;right=0;bottom=0;" parent="LU6wFYiVYD26gbTwDMBR-69" vertex="1">
          <mxGeometry y="120" width="290" height="30" as="geometry" />
        </mxCell>
        <mxCell id="LU6wFYiVYD26gbTwDMBR-80" value="" style="shape=partialRectangle;overflow=hidden;connectable=0;fillColor=none;top=0;left=0;bottom=0;right=0;" parent="LU6wFYiVYD26gbTwDMBR-79" vertex="1">
          <mxGeometry width="30" height="30" as="geometry">
            <mxRectangle width="30" height="30" as="alternateBounds" />
          </mxGeometry>
        </mxCell>
        <mxCell id="LU6wFYiVYD26gbTwDMBR-81" value="`company_name` varchar(100) " style="shape=partialRectangle;overflow=hidden;connectable=0;fillColor=none;align=left;top=0;left=0;bottom=0;right=0;spacingLeft=6;fontSize=15;" parent="LU6wFYiVYD26gbTwDMBR-79" vertex="1">
          <mxGeometry x="30" width="260" height="30" as="geometry">
            <mxRectangle width="260" height="30" as="alternateBounds" />
          </mxGeometry>
        </mxCell>
        <mxCell id="LU6wFYiVYD26gbTwDMBR-82" value="`cart_details`" style="shape=table;startSize=30;container=1;collapsible=1;childLayout=tableLayout;fixedRows=1;rowLines=0;fontStyle=1;align=center;resizeLast=1;fillColor=#d5e8d4;strokeColor=#82b366;fontSize=17;gradientColor=#97d077;" parent="1" vertex="1">
          <mxGeometry x="360" y="100" width="260" height="160" as="geometry" />
        </mxCell>
        <mxCell id="LU6wFYiVYD26gbTwDMBR-83" value="" style="shape=tableRow;horizontal=0;startSize=0;swimlaneHead=0;swimlaneBody=0;fillColor=none;collapsible=0;dropTarget=0;points=[[0,0.5],[1,0.5]];portConstraint=eastwest;top=0;left=0;right=0;bottom=0;" parent="LU6wFYiVYD26gbTwDMBR-82" vertex="1">
          <mxGeometry y="30" width="260" height="30" as="geometry" />
        </mxCell>
        <mxCell id="LU6wFYiVYD26gbTwDMBR-84" value="PK" style="shape=partialRectangle;overflow=hidden;connectable=0;fillColor=none;top=0;left=0;bottom=0;right=0;fontSize=15;" parent="LU6wFYiVYD26gbTwDMBR-83" vertex="1">
          <mxGeometry width="30" height="30" as="geometry">
            <mxRectangle width="30" height="30" as="alternateBounds" />
          </mxGeometry>
        </mxCell>
        <mxCell id="LU6wFYiVYD26gbTwDMBR-85" value="`cart_biproductID` int(11) " style="shape=partialRectangle;overflow=hidden;connectable=0;fillColor=none;align=left;top=0;left=0;bottom=0;right=0;spacingLeft=6;fontStyle=1;fontSize=15;" parent="LU6wFYiVYD26gbTwDMBR-83" vertex="1">
          <mxGeometry x="30" width="230" height="30" as="geometry">
            <mxRectangle width="230" height="30" as="alternateBounds" />
          </mxGeometry>
        </mxCell>
        <mxCell id="LU6wFYiVYD26gbTwDMBR-86" value="" style="shape=tableRow;horizontal=0;startSize=0;swimlaneHead=0;swimlaneBody=0;fillColor=none;collapsible=0;dropTarget=0;points=[[0,0.5],[1,0.5]];portConstraint=eastwest;top=0;left=0;right=0;bottom=0;" parent="LU6wFYiVYD26gbTwDMBR-82" vertex="1">
          <mxGeometry y="60" width="260" height="30" as="geometry" />
        </mxCell>
        <mxCell id="LU6wFYiVYD26gbTwDMBR-87" value="" style="shape=partialRectangle;overflow=hidden;connectable=0;fillColor=none;top=0;left=0;bottom=0;right=0;" parent="LU6wFYiVYD26gbTwDMBR-86" vertex="1">
          <mxGeometry width="30" height="30" as="geometry">
            <mxRectangle width="30" height="30" as="alternateBounds" />
          </mxGeometry>
        </mxCell>
        <mxCell id="LU6wFYiVYD26gbTwDMBR-88" value="`ip_address` varchar(255) " style="shape=partialRectangle;overflow=hidden;connectable=0;fillColor=none;align=left;top=0;left=0;bottom=0;right=0;spacingLeft=6;fontSize=15;" parent="LU6wFYiVYD26gbTwDMBR-86" vertex="1">
          <mxGeometry x="30" width="230" height="30" as="geometry">
            <mxRectangle width="230" height="30" as="alternateBounds" />
          </mxGeometry>
        </mxCell>
        <mxCell id="LU6wFYiVYD26gbTwDMBR-89" value="" style="shape=tableRow;horizontal=0;startSize=0;swimlaneHead=0;swimlaneBody=0;fillColor=none;collapsible=0;dropTarget=0;points=[[0,0.5],[1,0.5]];portConstraint=eastwest;top=0;left=0;right=0;bottom=0;" parent="LU6wFYiVYD26gbTwDMBR-82" vertex="1">
          <mxGeometry y="90" width="260" height="30" as="geometry" />
        </mxCell>
        <mxCell id="LU6wFYiVYD26gbTwDMBR-90" value="" style="shape=partialRectangle;overflow=hidden;connectable=0;fillColor=none;top=0;left=0;bottom=0;right=0;" parent="LU6wFYiVYD26gbTwDMBR-89" vertex="1">
          <mxGeometry width="30" height="30" as="geometry">
            <mxRectangle width="30" height="30" as="alternateBounds" />
          </mxGeometry>
        </mxCell>
        <mxCell id="LU6wFYiVYD26gbTwDMBR-91" value="`quantity` int(11) " style="shape=partialRectangle;overflow=hidden;connectable=0;fillColor=none;align=left;top=0;left=0;bottom=0;right=0;spacingLeft=6;fontSize=15;" parent="LU6wFYiVYD26gbTwDMBR-89" vertex="1">
          <mxGeometry x="30" width="230" height="30" as="geometry">
            <mxRectangle width="230" height="30" as="alternateBounds" />
          </mxGeometry>
        </mxCell>
        <mxCell id="LU6wFYiVYD26gbTwDMBR-92" value="" style="shape=tableRow;horizontal=0;startSize=0;swimlaneHead=0;swimlaneBody=0;fillColor=none;collapsible=0;dropTarget=0;points=[[0,0.5],[1,0.5]];portConstraint=eastwest;top=0;left=0;right=0;bottom=0;" parent="LU6wFYiVYD26gbTwDMBR-82" vertex="1">
          <mxGeometry y="120" width="260" height="30" as="geometry" />
        </mxCell>
        <mxCell id="LU6wFYiVYD26gbTwDMBR-93" value="FK" style="shape=partialRectangle;overflow=hidden;connectable=0;fillColor=none;top=0;left=0;bottom=0;right=0;" parent="LU6wFYiVYD26gbTwDMBR-92" vertex="1">
          <mxGeometry width="30" height="30" as="geometry">
            <mxRectangle width="30" height="30" as="alternateBounds" />
          </mxGeometry>
        </mxCell>
        <mxCell id="LU6wFYiVYD26gbTwDMBR-94" value="`Biproduct_id` int(11) " style="shape=partialRectangle;overflow=hidden;connectable=0;fillColor=none;align=left;top=0;left=0;bottom=0;right=0;spacingLeft=6;fontSize=15;" parent="LU6wFYiVYD26gbTwDMBR-92" vertex="1">
          <mxGeometry x="30" width="230" height="30" as="geometry">
            <mxRectangle width="230" height="30" as="alternateBounds" />
          </mxGeometry>
        </mxCell>
        <mxCell id="LU6wFYiVYD26gbTwDMBR-95" value="`categories`" style="shape=table;startSize=30;container=1;collapsible=1;childLayout=tableLayout;fixedRows=1;rowLines=0;fontStyle=1;align=center;resizeLast=1;fillColor=#d5e8d4;strokeColor=#82b366;fontSize=17;gradientColor=#97d077;" parent="1" vertex="1">
          <mxGeometry x="383" y="358" width="320" height="140" as="geometry" />
        </mxCell>
        <mxCell id="LU6wFYiVYD26gbTwDMBR-96" value="" style="shape=tableRow;horizontal=0;startSize=0;swimlaneHead=0;swimlaneBody=0;fillColor=none;collapsible=0;dropTarget=0;points=[[0,0.5],[1,0.5]];portConstraint=eastwest;top=0;left=0;right=0;bottom=0;" parent="LU6wFYiVYD26gbTwDMBR-95" vertex="1">
          <mxGeometry y="30" width="320" height="30" as="geometry" />
        </mxCell>
        <mxCell id="LU6wFYiVYD26gbTwDMBR-97" value="PK" style="shape=partialRectangle;overflow=hidden;connectable=0;fillColor=none;top=0;left=0;bottom=0;right=0;" parent="LU6wFYiVYD26gbTwDMBR-96" vertex="1">
          <mxGeometry width="30" height="30" as="geometry">
            <mxRectangle width="30" height="30" as="alternateBounds" />
          </mxGeometry>
        </mxCell>
        <mxCell id="LU6wFYiVYD26gbTwDMBR-98" value="`catergory_id` int(11) " style="shape=partialRectangle;overflow=hidden;connectable=0;fillColor=none;align=left;top=0;left=0;bottom=0;right=0;spacingLeft=6;fontStyle=1;fontSize=15;" parent="LU6wFYiVYD26gbTwDMBR-96" vertex="1">
          <mxGeometry x="30" width="290" height="30" as="geometry">
            <mxRectangle width="290" height="30" as="alternateBounds" />
          </mxGeometry>
        </mxCell>
        <mxCell id="LU6wFYiVYD26gbTwDMBR-99" value="" style="shape=tableRow;horizontal=0;startSize=0;swimlaneHead=0;swimlaneBody=0;fillColor=none;collapsible=0;dropTarget=0;points=[[0,0.5],[1,0.5]];portConstraint=eastwest;top=0;left=0;right=0;bottom=0;" parent="LU6wFYiVYD26gbTwDMBR-95" vertex="1">
          <mxGeometry y="60" width="320" height="30" as="geometry" />
        </mxCell>
        <mxCell id="LU6wFYiVYD26gbTwDMBR-100" value="" style="shape=partialRectangle;overflow=hidden;connectable=0;fillColor=none;top=0;left=0;bottom=0;right=0;" parent="LU6wFYiVYD26gbTwDMBR-99" vertex="1">
          <mxGeometry width="30" height="30" as="geometry">
            <mxRectangle width="30" height="30" as="alternateBounds" />
          </mxGeometry>
        </mxCell>
        <mxCell id="LU6wFYiVYD26gbTwDMBR-101" value="`catergory_name` varchar(100) " style="shape=partialRectangle;overflow=hidden;connectable=0;fillColor=none;align=left;top=0;left=0;bottom=0;right=0;spacingLeft=6;fontSize=15;" parent="LU6wFYiVYD26gbTwDMBR-99" vertex="1">
          <mxGeometry x="30" width="290" height="30" as="geometry">
            <mxRectangle width="290" height="30" as="alternateBounds" />
          </mxGeometry>
        </mxCell>
        <mxCell id="LU6wFYiVYD26gbTwDMBR-102" value="" style="shape=tableRow;horizontal=0;startSize=0;swimlaneHead=0;swimlaneBody=0;fillColor=none;collapsible=0;dropTarget=0;points=[[0,0.5],[1,0.5]];portConstraint=eastwest;top=0;left=0;right=0;bottom=0;" parent="LU6wFYiVYD26gbTwDMBR-95" vertex="1">
          <mxGeometry y="90" width="320" height="40" as="geometry" />
        </mxCell>
        <mxCell id="LU6wFYiVYD26gbTwDMBR-103" value="" style="shape=partialRectangle;overflow=hidden;connectable=0;fillColor=none;top=0;left=0;bottom=0;right=0;" parent="LU6wFYiVYD26gbTwDMBR-102" vertex="1">
          <mxGeometry width="30" height="40" as="geometry">
            <mxRectangle width="30" height="40" as="alternateBounds" />
          </mxGeometry>
        </mxCell>
        <mxCell id="LU6wFYiVYD26gbTwDMBR-104" value="`category_description` varchar(1000) " style="shape=partialRectangle;overflow=hidden;connectable=0;fillColor=none;align=left;top=0;left=0;bottom=0;right=0;spacingLeft=6;fontSize=15;" parent="LU6wFYiVYD26gbTwDMBR-102" vertex="1">
          <mxGeometry x="30" width="290" height="40" as="geometry">
            <mxRectangle width="290" height="40" as="alternateBounds" />
          </mxGeometry>
        </mxCell>
        <mxCell id="LU6wFYiVYD26gbTwDMBR-105" value="`user_info`" style="shape=table;startSize=30;container=1;collapsible=1;childLayout=tableLayout;fixedRows=1;rowLines=0;fontStyle=1;align=center;resizeLast=1;fillColor=#d5e8d4;strokeColor=#82b366;fontSize=17;gradientColor=#97d077;" parent="1" vertex="1">
          <mxGeometry x="-422" y="105" width="290" height="282.11764705882354" as="geometry" />
        </mxCell>
        <mxCell id="LU6wFYiVYD26gbTwDMBR-106" value="" style="shape=tableRow;horizontal=0;startSize=0;swimlaneHead=0;swimlaneBody=0;fillColor=none;collapsible=0;dropTarget=0;points=[[0,0.5],[1,0.5]];portConstraint=eastwest;top=0;left=0;right=0;bottom=0;" parent="LU6wFYiVYD26gbTwDMBR-105" vertex="1">
          <mxGeometry y="30" width="290" height="30" as="geometry" />
        </mxCell>
        <mxCell id="LU6wFYiVYD26gbTwDMBR-107" value="PK" style="shape=partialRectangle;overflow=hidden;connectable=0;fillColor=none;top=0;left=0;bottom=0;right=0;fontSize=15;" parent="LU6wFYiVYD26gbTwDMBR-106" vertex="1">
          <mxGeometry width="30" height="30" as="geometry">
            <mxRectangle width="30" height="30" as="alternateBounds" />
          </mxGeometry>
        </mxCell>
        <mxCell id="LU6wFYiVYD26gbTwDMBR-108" value="`user_id` int(11) " style="shape=partialRectangle;overflow=hidden;connectable=0;fillColor=none;align=left;top=0;left=0;bottom=0;right=0;spacingLeft=6;fontSize=15;fontStyle=1" parent="LU6wFYiVYD26gbTwDMBR-106" vertex="1">
          <mxGeometry x="30" width="260" height="30" as="geometry">
            <mxRectangle width="260" height="30" as="alternateBounds" />
          </mxGeometry>
        </mxCell>
        <mxCell id="LU6wFYiVYD26gbTwDMBR-109" value="" style="shape=tableRow;horizontal=0;startSize=0;swimlaneHead=0;swimlaneBody=0;fillColor=none;collapsible=0;dropTarget=0;points=[[0,0.5],[1,0.5]];portConstraint=eastwest;top=0;left=0;right=0;bottom=0;" parent="LU6wFYiVYD26gbTwDMBR-105" vertex="1">
          <mxGeometry y="60" width="290" height="30" as="geometry" />
        </mxCell>
        <mxCell id="LU6wFYiVYD26gbTwDMBR-110" value="" style="shape=partialRectangle;overflow=hidden;connectable=0;fillColor=none;top=0;left=0;bottom=0;right=0;" parent="LU6wFYiVYD26gbTwDMBR-109" vertex="1">
          <mxGeometry width="30" height="30" as="geometry">
            <mxRectangle width="30" height="30" as="alternateBounds" />
          </mxGeometry>
        </mxCell>
        <mxCell id="LU6wFYiVYD26gbTwDMBR-111" value="`user_username` varchar(100) " style="shape=partialRectangle;overflow=hidden;connectable=0;fillColor=none;align=left;top=0;left=0;bottom=0;right=0;spacingLeft=6;fontSize=15;" parent="LU6wFYiVYD26gbTwDMBR-109" vertex="1">
          <mxGeometry x="30" width="260" height="30" as="geometry">
            <mxRectangle width="260" height="30" as="alternateBounds" />
          </mxGeometry>
        </mxCell>
        <mxCell id="LU6wFYiVYD26gbTwDMBR-112" value="" style="shape=tableRow;horizontal=0;startSize=0;swimlaneHead=0;swimlaneBody=0;fillColor=none;collapsible=0;dropTarget=0;points=[[0,0.5],[1,0.5]];portConstraint=eastwest;top=0;left=0;right=0;bottom=0;" parent="LU6wFYiVYD26gbTwDMBR-105" vertex="1">
          <mxGeometry y="90" width="290" height="30" as="geometry" />
        </mxCell>
        <mxCell id="LU6wFYiVYD26gbTwDMBR-113" value="" style="shape=partialRectangle;overflow=hidden;connectable=0;fillColor=none;top=0;left=0;bottom=0;right=0;" parent="LU6wFYiVYD26gbTwDMBR-112" vertex="1">
          <mxGeometry width="30" height="30" as="geometry">
            <mxRectangle width="30" height="30" as="alternateBounds" />
          </mxGeometry>
        </mxCell>
        <mxCell id="LU6wFYiVYD26gbTwDMBR-114" value="`user_email` varchar(255) " style="shape=partialRectangle;overflow=hidden;connectable=0;fillColor=none;align=left;top=0;left=0;bottom=0;right=0;spacingLeft=6;fontSize=15;" parent="LU6wFYiVYD26gbTwDMBR-112" vertex="1">
          <mxGeometry x="30" width="260" height="30" as="geometry">
            <mxRectangle width="260" height="30" as="alternateBounds" />
          </mxGeometry>
        </mxCell>
        <mxCell id="LU6wFYiVYD26gbTwDMBR-115" value="" style="shape=tableRow;horizontal=0;startSize=0;swimlaneHead=0;swimlaneBody=0;fillColor=none;collapsible=0;dropTarget=0;points=[[0,0.5],[1,0.5]];portConstraint=eastwest;top=0;left=0;right=0;bottom=0;" parent="LU6wFYiVYD26gbTwDMBR-105" vertex="1">
          <mxGeometry y="120" width="290" height="30" as="geometry" />
        </mxCell>
        <mxCell id="LU6wFYiVYD26gbTwDMBR-116" value="" style="shape=partialRectangle;overflow=hidden;connectable=0;fillColor=none;top=0;left=0;bottom=0;right=0;" parent="LU6wFYiVYD26gbTwDMBR-115" vertex="1">
          <mxGeometry width="30" height="30" as="geometry">
            <mxRectangle width="30" height="30" as="alternateBounds" />
          </mxGeometry>
        </mxCell>
        <mxCell id="LU6wFYiVYD26gbTwDMBR-117" value="`user_password` varchar(255) " style="shape=partialRectangle;overflow=hidden;connectable=0;fillColor=none;align=left;top=0;left=0;bottom=0;right=0;spacingLeft=6;fontSize=15;" parent="LU6wFYiVYD26gbTwDMBR-115" vertex="1">
          <mxGeometry x="30" width="260" height="30" as="geometry">
            <mxRectangle width="260" height="30" as="alternateBounds" />
          </mxGeometry>
        </mxCell>
        <mxCell id="LU6wFYiVYD26gbTwDMBR-118" value="" style="shape=tableRow;horizontal=0;startSize=0;swimlaneHead=0;swimlaneBody=0;fillColor=none;collapsible=0;dropTarget=0;points=[[0,0.5],[1,0.5]];portConstraint=eastwest;top=0;left=0;right=0;bottom=0;" parent="LU6wFYiVYD26gbTwDMBR-105" vertex="1">
          <mxGeometry y="150" width="290" height="30" as="geometry" />
        </mxCell>
        <mxCell id="LU6wFYiVYD26gbTwDMBR-119" value="" style="shape=partialRectangle;overflow=hidden;connectable=0;fillColor=none;top=0;left=0;bottom=0;right=0;" parent="LU6wFYiVYD26gbTwDMBR-118" vertex="1">
          <mxGeometry width="30" height="30" as="geometry">
            <mxRectangle width="30" height="30" as="alternateBounds" />
          </mxGeometry>
        </mxCell>
        <mxCell id="LU6wFYiVYD26gbTwDMBR-120" value="`user_image` varchar(255) " style="shape=partialRectangle;overflow=hidden;connectable=0;fillColor=none;align=left;top=0;left=0;bottom=0;right=0;spacingLeft=6;fontSize=15;" parent="LU6wFYiVYD26gbTwDMBR-118" vertex="1">
          <mxGeometry x="30" width="260" height="30" as="geometry">
            <mxRectangle width="260" height="30" as="alternateBounds" />
          </mxGeometry>
        </mxCell>
        <mxCell id="LU6wFYiVYD26gbTwDMBR-121" value="" style="shape=tableRow;horizontal=0;startSize=0;swimlaneHead=0;swimlaneBody=0;fillColor=none;collapsible=0;dropTarget=0;points=[[0,0.5],[1,0.5]];portConstraint=eastwest;top=0;left=0;right=0;bottom=0;" parent="LU6wFYiVYD26gbTwDMBR-105" vertex="1">
          <mxGeometry y="180" width="290" height="30" as="geometry" />
        </mxCell>
        <mxCell id="LU6wFYiVYD26gbTwDMBR-122" value="" style="shape=partialRectangle;overflow=hidden;connectable=0;fillColor=none;top=0;left=0;bottom=0;right=0;" parent="LU6wFYiVYD26gbTwDMBR-121" vertex="1">
          <mxGeometry width="30" height="30" as="geometry">
            <mxRectangle width="30" height="30" as="alternateBounds" />
          </mxGeometry>
        </mxCell>
        <mxCell id="LU6wFYiVYD26gbTwDMBR-123" value="`user_ip_address` varchar(100) " style="shape=partialRectangle;overflow=hidden;connectable=0;fillColor=none;align=left;top=0;left=0;bottom=0;right=0;spacingLeft=6;fontSize=15;" parent="LU6wFYiVYD26gbTwDMBR-121" vertex="1">
          <mxGeometry x="30" width="260" height="30" as="geometry">
            <mxRectangle width="260" height="30" as="alternateBounds" />
          </mxGeometry>
        </mxCell>
        <mxCell id="LU6wFYiVYD26gbTwDMBR-124" value="" style="shape=tableRow;horizontal=0;startSize=0;swimlaneHead=0;swimlaneBody=0;fillColor=none;collapsible=0;dropTarget=0;points=[[0,0.5],[1,0.5]];portConstraint=eastwest;top=0;left=0;right=0;bottom=0;" parent="LU6wFYiVYD26gbTwDMBR-105" vertex="1">
          <mxGeometry y="210" width="290" height="26" as="geometry" />
        </mxCell>
        <mxCell id="LU6wFYiVYD26gbTwDMBR-125" value="" style="shape=partialRectangle;overflow=hidden;connectable=0;fillColor=none;top=0;left=0;bottom=0;right=0;" parent="LU6wFYiVYD26gbTwDMBR-124" vertex="1">
          <mxGeometry width="30" height="26" as="geometry">
            <mxRectangle width="30" height="26" as="alternateBounds" />
          </mxGeometry>
        </mxCell>
        <mxCell id="LU6wFYiVYD26gbTwDMBR-126" value="`user_mobile` varchar(20) " style="shape=partialRectangle;overflow=hidden;connectable=0;fillColor=none;align=left;top=0;left=0;bottom=0;right=0;spacingLeft=6;fontSize=15;" parent="LU6wFYiVYD26gbTwDMBR-124" vertex="1">
          <mxGeometry x="30" width="260" height="26" as="geometry">
            <mxRectangle width="260" height="26" as="alternateBounds" />
          </mxGeometry>
        </mxCell>
        <mxCell id="LU6wFYiVYD26gbTwDMBR-127" value="" style="shape=tableRow;horizontal=0;startSize=0;swimlaneHead=0;swimlaneBody=0;fillColor=none;collapsible=0;dropTarget=0;points=[[0,0.5],[1,0.5]];portConstraint=eastwest;top=0;left=0;right=0;bottom=0;" parent="LU6wFYiVYD26gbTwDMBR-105" vertex="1">
          <mxGeometry y="236" width="290" height="36" as="geometry" />
        </mxCell>
        <mxCell id="LU6wFYiVYD26gbTwDMBR-128" value="" style="shape=partialRectangle;overflow=hidden;connectable=0;fillColor=none;top=0;left=0;bottom=0;right=0;" parent="LU6wFYiVYD26gbTwDMBR-127" vertex="1">
          <mxGeometry width="30" height="36" as="geometry">
            <mxRectangle width="30" height="36" as="alternateBounds" />
          </mxGeometry>
        </mxCell>
        <mxCell id="LU6wFYiVYD26gbTwDMBR-129" value="`user_address` varchar(255) " style="shape=partialRectangle;overflow=hidden;connectable=0;fillColor=none;align=left;top=0;left=0;bottom=0;right=0;spacingLeft=6;fontSize=15;" parent="LU6wFYiVYD26gbTwDMBR-127" vertex="1">
          <mxGeometry x="30" width="260" height="36" as="geometry">
            <mxRectangle width="260" height="36" as="alternateBounds" />
          </mxGeometry>
        </mxCell>
        <mxCell id="LU6wFYiVYD26gbTwDMBR-130" value="`user_orders`" style="shape=table;startSize=30;container=1;collapsible=1;childLayout=tableLayout;fixedRows=1;rowLines=0;fontStyle=1;align=center;resizeLast=1;fillColor=#d5e8d4;strokeColor=#82b366;fontSize=17;gradientColor=#97d077;" parent="1" vertex="1">
          <mxGeometry x="-20" y="100" width="260" height="280" as="geometry" />
        </mxCell>
        <mxCell id="LU6wFYiVYD26gbTwDMBR-131" value="" style="shape=tableRow;horizontal=0;startSize=0;swimlaneHead=0;swimlaneBody=0;fillColor=none;collapsible=0;dropTarget=0;points=[[0,0.5],[1,0.5]];portConstraint=eastwest;top=0;left=0;right=0;bottom=0;" parent="LU6wFYiVYD26gbTwDMBR-130" vertex="1">
          <mxGeometry y="30" width="260" height="30" as="geometry" />
        </mxCell>
        <mxCell id="LU6wFYiVYD26gbTwDMBR-132" value="PK" style="shape=partialRectangle;overflow=hidden;connectable=0;fillColor=none;top=0;left=0;bottom=0;right=0;fontSize=15;" parent="LU6wFYiVYD26gbTwDMBR-131" vertex="1">
          <mxGeometry width="30" height="30" as="geometry">
            <mxRectangle width="30" height="30" as="alternateBounds" />
          </mxGeometry>
        </mxCell>
        <mxCell id="LU6wFYiVYD26gbTwDMBR-133" value="`order_id` int(11) " style="shape=partialRectangle;overflow=hidden;connectable=0;fillColor=none;align=left;top=0;left=0;bottom=0;right=0;spacingLeft=6;fontStyle=1;fontSize=15;" parent="LU6wFYiVYD26gbTwDMBR-131" vertex="1">
          <mxGeometry x="30" width="230" height="30" as="geometry">
            <mxRectangle width="230" height="30" as="alternateBounds" />
          </mxGeometry>
        </mxCell>
        <mxCell id="LU6wFYiVYD26gbTwDMBR-134" value="" style="shape=tableRow;horizontal=0;startSize=0;swimlaneHead=0;swimlaneBody=0;fillColor=none;collapsible=0;dropTarget=0;points=[[0,0.5],[1,0.5]];portConstraint=eastwest;top=0;left=0;right=0;bottom=0;" parent="LU6wFYiVYD26gbTwDMBR-130" vertex="1">
          <mxGeometry y="60" width="260" height="30" as="geometry" />
        </mxCell>
        <mxCell id="LU6wFYiVYD26gbTwDMBR-135" value="FK" style="shape=partialRectangle;overflow=hidden;connectable=0;fillColor=none;top=0;left=0;bottom=0;right=0;" parent="LU6wFYiVYD26gbTwDMBR-134" vertex="1">
          <mxGeometry width="30" height="30" as="geometry">
            <mxRectangle width="30" height="30" as="alternateBounds" />
          </mxGeometry>
        </mxCell>
        <mxCell id="LU6wFYiVYD26gbTwDMBR-136" value="`user_id` int(11) " style="shape=partialRectangle;overflow=hidden;connectable=0;fillColor=none;align=left;top=0;left=0;bottom=0;right=0;spacingLeft=6;fontSize=15;" parent="LU6wFYiVYD26gbTwDMBR-134" vertex="1">
          <mxGeometry x="30" width="230" height="30" as="geometry">
            <mxRectangle width="230" height="30" as="alternateBounds" />
          </mxGeometry>
        </mxCell>
        <mxCell id="LU6wFYiVYD26gbTwDMBR-137" value="" style="shape=tableRow;horizontal=0;startSize=0;swimlaneHead=0;swimlaneBody=0;fillColor=none;collapsible=0;dropTarget=0;points=[[0,0.5],[1,0.5]];portConstraint=eastwest;top=0;left=0;right=0;bottom=0;" parent="LU6wFYiVYD26gbTwDMBR-130" vertex="1">
          <mxGeometry y="90" width="260" height="30" as="geometry" />
        </mxCell>
        <mxCell id="LU6wFYiVYD26gbTwDMBR-138" value="" style="shape=partialRectangle;overflow=hidden;connectable=0;fillColor=none;top=0;left=0;bottom=0;right=0;" parent="LU6wFYiVYD26gbTwDMBR-137" vertex="1">
          <mxGeometry width="30" height="30" as="geometry">
            <mxRectangle width="30" height="30" as="alternateBounds" />
          </mxGeometry>
        </mxCell>
        <mxCell id="LU6wFYiVYD26gbTwDMBR-139" value="`amount_due` int(255) " style="shape=partialRectangle;overflow=hidden;connectable=0;fillColor=none;align=left;top=0;left=0;bottom=0;right=0;spacingLeft=6;fontSize=15;" parent="LU6wFYiVYD26gbTwDMBR-137" vertex="1">
          <mxGeometry x="30" width="230" height="30" as="geometry">
            <mxRectangle width="230" height="30" as="alternateBounds" />
          </mxGeometry>
        </mxCell>
        <mxCell id="LU6wFYiVYD26gbTwDMBR-140" value="" style="shape=tableRow;horizontal=0;startSize=0;swimlaneHead=0;swimlaneBody=0;fillColor=none;collapsible=0;dropTarget=0;points=[[0,0.5],[1,0.5]];portConstraint=eastwest;top=0;left=0;right=0;bottom=0;" parent="LU6wFYiVYD26gbTwDMBR-130" vertex="1">
          <mxGeometry y="120" width="260" height="30" as="geometry" />
        </mxCell>
        <mxCell id="LU6wFYiVYD26gbTwDMBR-141" value="" style="shape=partialRectangle;overflow=hidden;connectable=0;fillColor=none;top=0;left=0;bottom=0;right=0;" parent="LU6wFYiVYD26gbTwDMBR-140" vertex="1">
          <mxGeometry width="30" height="30" as="geometry">
            <mxRectangle width="30" height="30" as="alternateBounds" />
          </mxGeometry>
        </mxCell>
        <mxCell id="LU6wFYiVYD26gbTwDMBR-142" value="`invoice_number` int(255)" style="shape=partialRectangle;overflow=hidden;connectable=0;fillColor=none;align=left;top=0;left=0;bottom=0;right=0;spacingLeft=6;fontSize=15;" parent="LU6wFYiVYD26gbTwDMBR-140" vertex="1">
          <mxGeometry x="30" width="230" height="30" as="geometry">
            <mxRectangle width="230" height="30" as="alternateBounds" />
          </mxGeometry>
        </mxCell>
        <mxCell id="LU6wFYiVYD26gbTwDMBR-143" value="" style="shape=tableRow;horizontal=0;startSize=0;swimlaneHead=0;swimlaneBody=0;fillColor=none;collapsible=0;dropTarget=0;points=[[0,0.5],[1,0.5]];portConstraint=eastwest;top=0;left=0;right=0;bottom=0;" parent="LU6wFYiVYD26gbTwDMBR-130" vertex="1">
          <mxGeometry y="150" width="260" height="30" as="geometry" />
        </mxCell>
        <mxCell id="LU6wFYiVYD26gbTwDMBR-144" value="FK" style="shape=partialRectangle;overflow=hidden;connectable=0;fillColor=none;top=0;left=0;bottom=0;right=0;" parent="LU6wFYiVYD26gbTwDMBR-143" vertex="1">
          <mxGeometry width="30" height="30" as="geometry">
            <mxRectangle width="30" height="30" as="alternateBounds" />
          </mxGeometry>
        </mxCell>
        <mxCell id="LU6wFYiVYD26gbTwDMBR-145" value="`BiproductID` int(255)" style="shape=partialRectangle;overflow=hidden;connectable=0;fillColor=none;align=left;top=0;left=0;bottom=0;right=0;spacingLeft=6;fontSize=15;" parent="LU6wFYiVYD26gbTwDMBR-143" vertex="1">
          <mxGeometry x="30" width="230" height="30" as="geometry">
            <mxRectangle width="230" height="30" as="alternateBounds" />
          </mxGeometry>
        </mxCell>
        <mxCell id="LU6wFYiVYD26gbTwDMBR-146" value="" style="shape=tableRow;horizontal=0;startSize=0;swimlaneHead=0;swimlaneBody=0;fillColor=none;collapsible=0;dropTarget=0;points=[[0,0.5],[1,0.5]];portConstraint=eastwest;top=0;left=0;right=0;bottom=0;" parent="LU6wFYiVYD26gbTwDMBR-130" vertex="1">
          <mxGeometry y="180" width="260" height="30" as="geometry" />
        </mxCell>
        <mxCell id="LU6wFYiVYD26gbTwDMBR-147" value="" style="shape=partialRectangle;overflow=hidden;connectable=0;fillColor=none;top=0;left=0;bottom=0;right=0;" parent="LU6wFYiVYD26gbTwDMBR-146" vertex="1">
          <mxGeometry width="30" height="30" as="geometry">
            <mxRectangle width="30" height="30" as="alternateBounds" />
          </mxGeometry>
        </mxCell>
        <mxCell id="LU6wFYiVYD26gbTwDMBR-148" value="`Quantity` int(255)" style="shape=partialRectangle;overflow=hidden;connectable=0;fillColor=none;align=left;top=0;left=0;bottom=0;right=0;spacingLeft=6;fontSize=15;" parent="LU6wFYiVYD26gbTwDMBR-146" vertex="1">
          <mxGeometry x="30" width="230" height="30" as="geometry">
            <mxRectangle width="230" height="30" as="alternateBounds" />
          </mxGeometry>
        </mxCell>
        <mxCell id="LU6wFYiVYD26gbTwDMBR-149" value="" style="shape=tableRow;horizontal=0;startSize=0;swimlaneHead=0;swimlaneBody=0;fillColor=none;collapsible=0;dropTarget=0;points=[[0,0.5],[1,0.5]];portConstraint=eastwest;top=0;left=0;right=0;bottom=0;" parent="LU6wFYiVYD26gbTwDMBR-130" vertex="1">
          <mxGeometry y="210" width="260" height="30" as="geometry" />
        </mxCell>
        <mxCell id="LU6wFYiVYD26gbTwDMBR-150" value="" style="shape=partialRectangle;overflow=hidden;connectable=0;fillColor=none;top=0;left=0;bottom=0;right=0;" parent="LU6wFYiVYD26gbTwDMBR-149" vertex="1">
          <mxGeometry width="30" height="30" as="geometry">
            <mxRectangle width="30" height="30" as="alternateBounds" />
          </mxGeometry>
        </mxCell>
        <mxCell id="LU6wFYiVYD26gbTwDMBR-151" value="`order_date` " style="shape=partialRectangle;overflow=hidden;connectable=0;fillColor=none;align=left;top=0;left=0;bottom=0;right=0;spacingLeft=6;fontSize=15;" parent="LU6wFYiVYD26gbTwDMBR-149" vertex="1">
          <mxGeometry x="30" width="230" height="30" as="geometry">
            <mxRectangle width="230" height="30" as="alternateBounds" />
          </mxGeometry>
        </mxCell>
        <mxCell id="LU6wFYiVYD26gbTwDMBR-152" value="" style="shape=tableRow;horizontal=0;startSize=0;swimlaneHead=0;swimlaneBody=0;fillColor=none;collapsible=0;dropTarget=0;points=[[0,0.5],[1,0.5]];portConstraint=eastwest;top=0;left=0;right=0;bottom=0;" parent="LU6wFYiVYD26gbTwDMBR-130" vertex="1">
          <mxGeometry y="240" width="260" height="30" as="geometry" />
        </mxCell>
        <mxCell id="LU6wFYiVYD26gbTwDMBR-153" value="" style="shape=partialRectangle;overflow=hidden;connectable=0;fillColor=none;top=0;left=0;bottom=0;right=0;" parent="LU6wFYiVYD26gbTwDMBR-152" vertex="1">
          <mxGeometry width="30" height="30" as="geometry">
            <mxRectangle width="30" height="30" as="alternateBounds" />
          </mxGeometry>
        </mxCell>
        <mxCell id="LU6wFYiVYD26gbTwDMBR-154" value="`order_status` varchar(255)" style="shape=partialRectangle;overflow=hidden;connectable=0;fillColor=none;align=left;top=0;left=0;bottom=0;right=0;spacingLeft=6;fontSize=15;" parent="LU6wFYiVYD26gbTwDMBR-152" vertex="1">
          <mxGeometry x="30" width="230" height="30" as="geometry">
            <mxRectangle width="230" height="30" as="alternateBounds" />
          </mxGeometry>
        </mxCell>
        <mxCell id="LU6wFYiVYD26gbTwDMBR-155" value="" style="edgeStyle=entityRelationEdgeStyle;fontSize=12;html=1;endArrow=ERoneToMany;rounded=0;exitX=1;exitY=0.5;exitDx=0;exitDy=0;entryX=0;entryY=0.5;entryDx=0;entryDy=0;" parent="1" source="LU6wFYiVYD26gbTwDMBR-106" target="LU6wFYiVYD26gbTwDMBR-134" edge="1">
          <mxGeometry width="100" height="100" relative="1" as="geometry">
            <mxPoint x="300" y="610" as="sourcePoint" />
            <mxPoint x="400" y="510" as="targetPoint" />
          </mxGeometry>
        </mxCell>
        <mxCell id="LU6wFYiVYD26gbTwDMBR-162" value="" style="edgeStyle=entityRelationEdgeStyle;fontSize=12;html=1;endArrow=ERoneToMany;rounded=0;exitX=1;exitY=0.5;exitDx=0;exitDy=0;" parent="1" source="LU6wFYiVYD26gbTwDMBR-70" target="LU6wFYiVYD26gbTwDMBR-42" edge="1">
          <mxGeometry width="100" height="100" relative="1" as="geometry">
            <mxPoint x="140" y="340" as="sourcePoint" />
            <mxPoint x="240" y="240" as="targetPoint" />
          </mxGeometry>
        </mxCell>
        <mxCell id="LU6wFYiVYD26gbTwDMBR-163" value="" style="edgeStyle=entityRelationEdgeStyle;fontSize=12;html=1;endArrow=ERoneToMany;rounded=0;exitX=0;exitY=0.5;exitDx=0;exitDy=0;" parent="1" source="LU6wFYiVYD26gbTwDMBR-96" target="LU6wFYiVYD26gbTwDMBR-36" edge="1">
          <mxGeometry width="100" height="100" relative="1" as="geometry">
            <mxPoint x="140" y="340" as="sourcePoint" />
            <mxPoint x="310" y="280" as="targetPoint" />
          </mxGeometry>
        </mxCell>
        <mxCell id="LU6wFYiVYD26gbTwDMBR-164" value="" style="edgeStyle=entityRelationEdgeStyle;fontSize=12;html=1;endArrow=ERmany;startArrow=ERmany;rounded=0;exitX=1;exitY=0.5;exitDx=0;exitDy=0;entryX=0;entryY=0.5;entryDx=0;entryDy=0;" parent="1" source="LU6wFYiVYD26gbTwDMBR-30" target="LU6wFYiVYD26gbTwDMBR-92" edge="1">
          <mxGeometry width="100" height="100" relative="1" as="geometry">
            <mxPoint x="140" y="340" as="sourcePoint" />
            <mxPoint x="240" y="240" as="targetPoint" />
          </mxGeometry>
        </mxCell>
        <mxCell id="LU6wFYiVYD26gbTwDMBR-165" value="" style="edgeStyle=entityRelationEdgeStyle;fontSize=12;html=1;endArrow=ERmany;startArrow=ERmany;rounded=0;entryX=-0.006;entryY=0.8;entryDx=0;entryDy=0;entryPerimeter=0;" parent="1" source="LU6wFYiVYD26gbTwDMBR-143" target="LU6wFYiVYD26gbTwDMBR-30" edge="1">
          <mxGeometry width="100" height="100" relative="1" as="geometry">
            <mxPoint x="-160" y="560" as="sourcePoint" />
            <mxPoint x="-60" y="470" as="targetPoint" />
          </mxGeometry>
        </mxCell>
        <mxCell id="LU6wFYiVYD26gbTwDMBR-166" value="" style="edgeStyle=entityRelationEdgeStyle;fontSize=12;html=1;endArrow=ERmany;rounded=0;entryX=1;entryY=0.5;entryDx=0;entryDy=0;exitX=1;exitY=0.5;exitDx=0;exitDy=0;" parent="1" source="LU6wFYiVYD26gbTwDMBR-79" target="LU6wFYiVYD26gbTwDMBR-20" edge="1">
          <mxGeometry width="100" height="100" relative="1" as="geometry">
            <mxPoint x="-546" y="501" as="sourcePoint" />
            <mxPoint x="-400" y="870" as="targetPoint" />
          </mxGeometry>
        </mxCell>
      </root>
    </mxGraphModel>
  </diagram>
  <diagram id="A3KnxJQy0Rsgc99004NF" name="Page-2">
    <mxGraphModel dx="1422" dy="800" grid="0" gridSize="10" guides="1" tooltips="1" connect="1" arrows="1" fold="1" page="1" pageScale="1" pageWidth="3300" pageHeight="4681" math="0" shadow="0">
      <root>
        <mxCell id="0" />
        <mxCell id="1" parent="0" />
        <mxCell id="FVFhTPiEFMbTSJ4EKH3l-1" value="Client" style="swimlane;fontStyle=1;align=center;verticalAlign=top;childLayout=stackLayout;horizontal=1;startSize=26;horizontalStack=0;resizeParent=1;resizeParentMax=0;resizeLast=0;collapsible=1;marginBottom=0;fillStyle=auto;fontSize=13;fillColor=#f5f5f5;gradientColor=#b3b3b3;strokeColor=#666666;" parent="1" vertex="1">
          <mxGeometry x="618" y="271" width="210" height="200" as="geometry" />
        </mxCell>
        <mxCell id="FVFhTPiEFMbTSJ4EKH3l-2" value="-clientId:int&#xa;-password: string&#xa;" style="text;strokeColor=none;fillColor=none;align=left;verticalAlign=top;spacingLeft=4;spacingRight=4;overflow=hidden;rotatable=0;points=[[0,0.5],[1,0.5]];portConstraint=eastwest;fillStyle=auto;fontSize=15;fontFamily=Helvetica;" parent="FVFhTPiEFMbTSJ4EKH3l-1" vertex="1">
          <mxGeometry y="26" width="210" height="54" as="geometry" />
        </mxCell>
        <mxCell id="FVFhTPiEFMbTSJ4EKH3l-3" value="" style="line;strokeWidth=1;fillColor=none;align=left;verticalAlign=middle;spacingTop=-1;spacingLeft=3;spacingRight=3;rotatable=0;labelPosition=right;points=[];portConstraint=eastwest;strokeColor=inherit;fillStyle=auto;fontSize=13;" parent="FVFhTPiEFMbTSJ4EKH3l-1" vertex="1">
          <mxGeometry y="80" width="210" height="8" as="geometry" />
        </mxCell>
        <mxCell id="FVFhTPiEFMbTSJ4EKH3l-4" value="+ verifyLogin():bool&#xa;+register()&#xa;+login()&#xa;+logout()&#xa;+updateProfile()" style="text;strokeColor=none;fillColor=none;align=left;verticalAlign=top;spacingLeft=4;spacingRight=4;overflow=hidden;rotatable=0;points=[[0,0.5],[1,0.5]];portConstraint=eastwest;fillStyle=auto;fontSize=15;" parent="FVFhTPiEFMbTSJ4EKH3l-1" vertex="1">
          <mxGeometry y="88" width="210" height="112" as="geometry" />
        </mxCell>
        <mxCell id="FVFhTPiEFMbTSJ4EKH3l-6" value="user (customer)" style="swimlane;fontStyle=1;align=center;verticalAlign=top;childLayout=stackLayout;horizontal=1;startSize=26;horizontalStack=0;resizeParent=1;resizeParentMax=0;resizeLast=0;collapsible=1;marginBottom=0;fillStyle=auto;fontFamily=Helvetica;fontSize=15;fillColor=#d5e8d4;gradientColor=#97d077;strokeColor=#82b366;" parent="1" vertex="1">
          <mxGeometry x="373" y="340" width="180" height="110" as="geometry">
            <mxRectangle x="370" y="360" width="150" height="30" as="alternateBounds" />
          </mxGeometry>
        </mxCell>
        <mxCell id="FVFhTPiEFMbTSJ4EKH3l-7" value="-userName: string&#xa;-userImage:string&#xa;-mobile no: int&#xa;-home address:string" style="text;strokeColor=none;fillColor=none;align=left;verticalAlign=top;spacingLeft=4;spacingRight=4;overflow=hidden;rotatable=0;points=[[0,0.5],[1,0.5]];portConstraint=eastwest;fillStyle=auto;fontFamily=Helvetica;fontSize=15;" parent="FVFhTPiEFMbTSJ4EKH3l-6" vertex="1">
          <mxGeometry y="26" width="180" height="84" as="geometry" />
        </mxCell>
        <mxCell id="FVFhTPiEFMbTSJ4EKH3l-14" value="user(administrator)" style="swimlane;fontStyle=1;align=center;verticalAlign=top;childLayout=stackLayout;horizontal=1;startSize=26;horizontalStack=0;resizeParent=1;resizeParentMax=0;resizeLast=0;collapsible=1;marginBottom=0;fillStyle=auto;fontFamily=Helvetica;fontSize=15;fillColor=#d5e8d4;gradientColor=#97d077;strokeColor=#82b366;" parent="1" vertex="1">
          <mxGeometry x="918" y="340" width="200" height="174" as="geometry" />
        </mxCell>
        <mxCell id="FVFhTPiEFMbTSJ4EKH3l-16" value="" style="line;strokeWidth=1;fillColor=none;align=left;verticalAlign=middle;spacingTop=-1;spacingLeft=3;spacingRight=3;rotatable=0;labelPosition=right;points=[];portConstraint=eastwest;strokeColor=inherit;fillStyle=auto;fontFamily=Helvetica;fontSize=15;" parent="FVFhTPiEFMbTSJ4EKH3l-14" vertex="1">
          <mxGeometry y="26" width="200" height="8" as="geometry" />
        </mxCell>
        <mxCell id="FVFhTPiEFMbTSJ4EKH3l-15" value="- adminName: string&#xa;-adminimage: string&#xa;-companyName:string&#xa;-company address:string&#xa;-company number: int&#xa;" style="text;strokeColor=none;fillColor=none;align=left;verticalAlign=top;spacingLeft=4;spacingRight=4;overflow=hidden;rotatable=0;points=[[0,0.5],[1,0.5]];portConstraint=eastwest;fillStyle=auto;fontFamily=Helvetica;fontSize=15;" parent="FVFhTPiEFMbTSJ4EKH3l-14" vertex="1">
          <mxGeometry y="34" width="200" height="114" as="geometry" />
        </mxCell>
        <mxCell id="FVFhTPiEFMbTSJ4EKH3l-17" value="+ Delete orders(): " style="text;strokeColor=none;fillColor=none;align=left;verticalAlign=top;spacingLeft=4;spacingRight=4;overflow=hidden;rotatable=0;points=[[0,0.5],[1,0.5]];portConstraint=eastwest;fillStyle=auto;fontFamily=Helvetica;fontSize=15;" parent="FVFhTPiEFMbTSJ4EKH3l-14" vertex="1">
          <mxGeometry y="148" width="200" height="26" as="geometry" />
        </mxCell>
        <mxCell id="FVFhTPiEFMbTSJ4EKH3l-18" value="" style="endArrow=block;endFill=1;html=1;edgeStyle=orthogonalEdgeStyle;align=left;verticalAlign=top;rounded=0;fontFamily=Helvetica;fontSize=15;entryX=0.005;entryY=0.055;entryDx=0;entryDy=0;entryPerimeter=0;exitX=0.5;exitY=0;exitDx=0;exitDy=0;" parent="1" source="FVFhTPiEFMbTSJ4EKH3l-6" target="FVFhTPiEFMbTSJ4EKH3l-1" edge="1">
          <mxGeometry x="-1" relative="1" as="geometry">
            <mxPoint x="530" y="400" as="sourcePoint" />
            <mxPoint x="690" y="400" as="targetPoint" />
          </mxGeometry>
        </mxCell>
        <mxCell id="FVFhTPiEFMbTSJ4EKH3l-19" value="1" style="edgeLabel;resizable=0;html=1;align=left;verticalAlign=bottom;fillStyle=auto;fontFamily=Helvetica;fontSize=15;" parent="FVFhTPiEFMbTSJ4EKH3l-18" connectable="0" vertex="1">
          <mxGeometry x="-1" relative="1" as="geometry" />
        </mxCell>
        <mxCell id="FVFhTPiEFMbTSJ4EKH3l-20" value="" style="endArrow=block;endFill=1;html=1;edgeStyle=orthogonalEdgeStyle;align=left;verticalAlign=top;rounded=0;fontFamily=Helvetica;fontSize=15;entryX=1;entryY=0.5;entryDx=0;entryDy=0;exitX=0.435;exitY=-0.006;exitDx=0;exitDy=0;exitPerimeter=0;" parent="1" source="FVFhTPiEFMbTSJ4EKH3l-14" target="FVFhTPiEFMbTSJ4EKH3l-2" edge="1">
          <mxGeometry x="-1" relative="1" as="geometry">
            <mxPoint x="980" y="470" as="sourcePoint" />
            <mxPoint x="1140" y="470" as="targetPoint" />
          </mxGeometry>
        </mxCell>
        <mxCell id="FVFhTPiEFMbTSJ4EKH3l-21" value="1" style="edgeLabel;resizable=0;html=1;align=left;verticalAlign=bottom;fillStyle=auto;fontFamily=Helvetica;fontSize=15;" parent="FVFhTPiEFMbTSJ4EKH3l-20" connectable="0" vertex="1">
          <mxGeometry x="-1" relative="1" as="geometry" />
        </mxCell>
        <mxCell id="FVFhTPiEFMbTSJ4EKH3l-22" value="shopping cart" style="swimlane;fontStyle=1;align=center;verticalAlign=top;childLayout=stackLayout;horizontal=1;startSize=26;horizontalStack=0;resizeParent=1;resizeParentMax=0;resizeLast=0;collapsible=1;marginBottom=0;fillStyle=auto;fontFamily=Helvetica;fontSize=15;fillColor=#dae8fc;gradientColor=#7ea6e0;strokeColor=#6c8ebf;" parent="1" vertex="1">
          <mxGeometry x="182" y="592" width="160" height="210" as="geometry" />
        </mxCell>
        <mxCell id="FVFhTPiEFMbTSJ4EKH3l-23" value="+cartID: int&#xa;+BiproductID: int&#xa;+Quantity:int&#xa;+sub total:int" style="text;strokeColor=none;fillColor=none;align=left;verticalAlign=top;spacingLeft=4;spacingRight=4;overflow=hidden;rotatable=0;points=[[0,0.5],[1,0.5]];portConstraint=eastwest;fillStyle=auto;fontFamily=Helvetica;fontSize=15;" parent="FVFhTPiEFMbTSJ4EKH3l-22" vertex="1">
          <mxGeometry y="26" width="160" height="84" as="geometry" />
        </mxCell>
        <mxCell id="FVFhTPiEFMbTSJ4EKH3l-24" value="" style="line;strokeWidth=1;fillColor=none;align=left;verticalAlign=middle;spacingTop=-1;spacingLeft=3;spacingRight=3;rotatable=0;labelPosition=right;points=[];portConstraint=eastwest;strokeColor=inherit;fillStyle=auto;fontFamily=Helvetica;fontSize=15;" parent="FVFhTPiEFMbTSJ4EKH3l-22" vertex="1">
          <mxGeometry y="110" width="160" height="8" as="geometry" />
        </mxCell>
        <mxCell id="FVFhTPiEFMbTSJ4EKH3l-25" value="+addCartItem()&#xa;+updateQuantity()&#xa;+deleteItem()&#xa;+placeOrder()" style="text;strokeColor=none;fillColor=none;align=left;verticalAlign=top;spacingLeft=4;spacingRight=4;overflow=hidden;rotatable=0;points=[[0,0.5],[1,0.5]];portConstraint=eastwest;fillStyle=auto;fontFamily=Helvetica;fontSize=15;" parent="FVFhTPiEFMbTSJ4EKH3l-22" vertex="1">
          <mxGeometry y="118" width="160" height="92" as="geometry" />
        </mxCell>
        <mxCell id="FVFhTPiEFMbTSJ4EKH3l-26" value="" style="endArrow=diamondThin;endFill=1;endSize=24;html=1;rounded=0;fontFamily=Helvetica;fontSize=15;exitX=0.394;exitY=-0.026;exitDx=0;exitDy=0;exitPerimeter=0;entryX=-0.011;entryY=0.179;entryDx=0;entryDy=0;entryPerimeter=0;" parent="1" source="FVFhTPiEFMbTSJ4EKH3l-22" target="FVFhTPiEFMbTSJ4EKH3l-7" edge="1">
          <mxGeometry width="160" relative="1" as="geometry">
            <mxPoint x="210" y="414.5" as="sourcePoint" />
            <mxPoint x="370" y="414.5" as="targetPoint" />
          </mxGeometry>
        </mxCell>
        <mxCell id="FVFhTPiEFMbTSJ4EKH3l-28" value="Order" style="swimlane;fontStyle=1;align=center;verticalAlign=top;childLayout=stackLayout;horizontal=1;startSize=26;horizontalStack=0;resizeParent=1;resizeParentMax=0;resizeLast=0;collapsible=1;marginBottom=0;fillStyle=auto;fontFamily=Helvetica;fontSize=15;fillColor=#dae8fc;gradientColor=#7ea6e0;strokeColor=#6c8ebf;" parent="1" vertex="1">
          <mxGeometry x="375" y="592" width="170" height="210" as="geometry" />
        </mxCell>
        <mxCell id="FVFhTPiEFMbTSJ4EKH3l-29" value="+ orderId: int&#xa;+userId:int&#xa;+amountdue:int&#xa;+biproductID:int&#xa;+quantity:int&#xa;+orderDate:string&#xa;+invoiceNumber:string" style="text;strokeColor=none;fillColor=none;align=left;verticalAlign=top;spacingLeft=4;spacingRight=4;overflow=hidden;rotatable=0;points=[[0,0.5],[1,0.5]];portConstraint=eastwest;fillStyle=auto;fontFamily=Helvetica;fontSize=15;" parent="FVFhTPiEFMbTSJ4EKH3l-28" vertex="1">
          <mxGeometry y="26" width="170" height="134" as="geometry" />
        </mxCell>
        <mxCell id="FVFhTPiEFMbTSJ4EKH3l-30" value="" style="line;strokeWidth=1;fillColor=none;align=left;verticalAlign=middle;spacingTop=-1;spacingLeft=3;spacingRight=3;rotatable=0;labelPosition=right;points=[];portConstraint=eastwest;strokeColor=inherit;fillStyle=auto;fontFamily=Helvetica;fontSize=15;" parent="FVFhTPiEFMbTSJ4EKH3l-28" vertex="1">
          <mxGeometry y="160" width="170" height="8" as="geometry" />
        </mxCell>
        <mxCell id="FVFhTPiEFMbTSJ4EKH3l-31" value="+deleteOrder()" style="text;strokeColor=none;fillColor=none;align=left;verticalAlign=top;spacingLeft=4;spacingRight=4;overflow=hidden;rotatable=0;points=[[0,0.5],[1,0.5]];portConstraint=eastwest;fillStyle=auto;fontFamily=Helvetica;fontSize=15;" parent="FVFhTPiEFMbTSJ4EKH3l-28" vertex="1">
          <mxGeometry y="168" width="170" height="42" as="geometry" />
        </mxCell>
        <mxCell id="FVFhTPiEFMbTSJ4EKH3l-32" value="" style="endArrow=diamondThin;endFill=1;endSize=24;html=1;rounded=0;fontFamily=Helvetica;fontSize=15;entryX=0.617;entryY=1.036;entryDx=0;entryDy=0;entryPerimeter=0;exitX=0.5;exitY=0;exitDx=0;exitDy=0;" parent="1" source="FVFhTPiEFMbTSJ4EKH3l-28" target="FVFhTPiEFMbTSJ4EKH3l-7" edge="1">
          <mxGeometry width="160" relative="1" as="geometry">
            <mxPoint x="340" y="540" as="sourcePoint" />
            <mxPoint x="500" y="540" as="targetPoint" />
          </mxGeometry>
        </mxCell>
        <mxCell id="FVFhTPiEFMbTSJ4EKH3l-33" value="Coconut BiProducts" style="swimlane;fontStyle=1;align=center;verticalAlign=top;childLayout=stackLayout;horizontal=1;startSize=26;horizontalStack=0;resizeParent=1;resizeParentMax=0;resizeLast=0;collapsible=1;marginBottom=0;fillStyle=auto;fontFamily=Helvetica;fontSize=15;fillColor=#dae8fc;gradientColor=#7ea6e0;strokeColor=#6c8ebf;" parent="1" vertex="1">
          <mxGeometry x="680" y="592" width="180" height="260" as="geometry" />
        </mxCell>
        <mxCell id="FVFhTPiEFMbTSJ4EKH3l-34" value="+Biproduct_id: int(11)&#xa;+BiproductName:string&#xa;+description:string&#xa;+image&#xa;+price&#xa;+stocks&#xa;+categoryId&#xa;+brandId" style="text;strokeColor=none;fillColor=none;align=left;verticalAlign=top;spacingLeft=4;spacingRight=4;overflow=hidden;rotatable=0;points=[[0,0.5],[1,0.5]];portConstraint=eastwest;fillStyle=auto;fontFamily=Helvetica;fontSize=15;" parent="FVFhTPiEFMbTSJ4EKH3l-33" vertex="1">
          <mxGeometry y="26" width="180" height="154" as="geometry" />
        </mxCell>
        <mxCell id="FVFhTPiEFMbTSJ4EKH3l-35" value="" style="line;strokeWidth=1;fillColor=none;align=left;verticalAlign=middle;spacingTop=-1;spacingLeft=3;spacingRight=3;rotatable=0;labelPosition=right;points=[];portConstraint=eastwest;strokeColor=inherit;fillStyle=auto;fontFamily=Helvetica;fontSize=15;" parent="FVFhTPiEFMbTSJ4EKH3l-33" vertex="1">
          <mxGeometry y="180" width="180" height="8" as="geometry" />
        </mxCell>
        <mxCell id="FVFhTPiEFMbTSJ4EKH3l-36" value="+ addProducts()&#xa;+deleteProducts()&#xa;+updateProducts()" style="text;strokeColor=none;fillColor=none;align=left;verticalAlign=top;spacingLeft=4;spacingRight=4;overflow=hidden;rotatable=0;points=[[0,0.5],[1,0.5]];portConstraint=eastwest;fillStyle=auto;fontFamily=Helvetica;fontSize=15;" parent="FVFhTPiEFMbTSJ4EKH3l-33" vertex="1">
          <mxGeometry y="188" width="180" height="72" as="geometry" />
        </mxCell>
        <mxCell id="FVFhTPiEFMbTSJ4EKH3l-37" value="Categories" style="swimlane;fontStyle=1;align=center;verticalAlign=top;childLayout=stackLayout;horizontal=1;startSize=26;horizontalStack=0;resizeParent=1;resizeParentMax=0;resizeLast=0;collapsible=1;marginBottom=0;fillStyle=auto;fontFamily=Helvetica;fontSize=15;fillColor=#dae8fc;gradientColor=#7ea6e0;strokeColor=#6c8ebf;" parent="1" vertex="1">
          <mxGeometry x="883" y="592" width="160" height="180" as="geometry" />
        </mxCell>
        <mxCell id="FVFhTPiEFMbTSJ4EKH3l-38" value="+categoryId:int&#xa;+categoryName:string&#xa;+categoryDescription" style="text;strokeColor=none;fillColor=none;align=left;verticalAlign=top;spacingLeft=4;spacingRight=4;overflow=hidden;rotatable=0;points=[[0,0.5],[1,0.5]];portConstraint=eastwest;fillStyle=auto;fontFamily=Helvetica;fontSize=15;" parent="FVFhTPiEFMbTSJ4EKH3l-37" vertex="1">
          <mxGeometry y="26" width="160" height="74" as="geometry" />
        </mxCell>
        <mxCell id="FVFhTPiEFMbTSJ4EKH3l-39" value="" style="line;strokeWidth=1;fillColor=none;align=left;verticalAlign=middle;spacingTop=-1;spacingLeft=3;spacingRight=3;rotatable=0;labelPosition=right;points=[];portConstraint=eastwest;strokeColor=inherit;fillStyle=auto;fontFamily=Helvetica;fontSize=15;" parent="FVFhTPiEFMbTSJ4EKH3l-37" vertex="1">
          <mxGeometry y="100" width="160" height="8" as="geometry" />
        </mxCell>
        <mxCell id="FVFhTPiEFMbTSJ4EKH3l-40" value="+addCategory()&#xa;+deleteCategory()&#xa;+updateCategory()" style="text;strokeColor=none;fillColor=none;align=left;verticalAlign=top;spacingLeft=4;spacingRight=4;overflow=hidden;rotatable=0;points=[[0,0.5],[1,0.5]];portConstraint=eastwest;fillStyle=auto;fontFamily=Helvetica;fontSize=15;" parent="FVFhTPiEFMbTSJ4EKH3l-37" vertex="1">
          <mxGeometry y="108" width="160" height="72" as="geometry" />
        </mxCell>
        <mxCell id="FVFhTPiEFMbTSJ4EKH3l-41" value="Brands" style="swimlane;fontStyle=1;align=center;verticalAlign=top;childLayout=stackLayout;horizontal=1;startSize=26;horizontalStack=0;resizeParent=1;resizeParentMax=0;resizeLast=0;collapsible=1;marginBottom=0;fillStyle=auto;fontFamily=Helvetica;fontSize=15;fillColor=#dae8fc;gradientColor=#7ea6e0;strokeColor=#6c8ebf;" parent="1" vertex="1">
          <mxGeometry x="1071" y="592" width="180" height="200" as="geometry" />
        </mxCell>
        <mxCell id="FVFhTPiEFMbTSJ4EKH3l-42" value="brandId:int&#xa;brandName:string:string&#xa;brand description:string&#xa;company_name:string" style="text;strokeColor=none;fillColor=none;align=left;verticalAlign=top;spacingLeft=4;spacingRight=4;overflow=hidden;rotatable=0;points=[[0,0.5],[1,0.5]];portConstraint=eastwest;fillStyle=auto;fontFamily=Helvetica;fontSize=15;" parent="FVFhTPiEFMbTSJ4EKH3l-41" vertex="1">
          <mxGeometry y="26" width="180" height="104" as="geometry" />
        </mxCell>
        <mxCell id="FVFhTPiEFMbTSJ4EKH3l-43" value="" style="line;strokeWidth=1;fillColor=none;align=left;verticalAlign=middle;spacingTop=-1;spacingLeft=3;spacingRight=3;rotatable=0;labelPosition=right;points=[];portConstraint=eastwest;strokeColor=inherit;fillStyle=auto;fontFamily=Helvetica;fontSize=15;" parent="FVFhTPiEFMbTSJ4EKH3l-41" vertex="1">
          <mxGeometry y="130" width="180" height="8" as="geometry" />
        </mxCell>
        <mxCell id="FVFhTPiEFMbTSJ4EKH3l-44" value="+ addBrand()&#xa;+deleteBrand()&#xa;+updateBrand()" style="text;strokeColor=none;fillColor=none;align=left;verticalAlign=top;spacingLeft=4;spacingRight=4;overflow=hidden;rotatable=0;points=[[0,0.5],[1,0.5]];portConstraint=eastwest;fillStyle=auto;fontFamily=Helvetica;fontSize=15;" parent="FVFhTPiEFMbTSJ4EKH3l-41" vertex="1">
          <mxGeometry y="138" width="180" height="62" as="geometry" />
        </mxCell>
        <mxCell id="RlmKdGRw48nTEU992F2d-41" value="" style="endArrow=diamondThin;endFill=1;endSize=24;html=1;rounded=0;fontFamily=Helvetica;fontSize=15;exitX=0.461;exitY=0.008;exitDx=0;exitDy=0;exitPerimeter=0;" parent="1" source="FVFhTPiEFMbTSJ4EKH3l-33" target="FVFhTPiEFMbTSJ4EKH3l-15" edge="1">
          <mxGeometry width="160" relative="1" as="geometry">
            <mxPoint x="590" y="510" as="sourcePoint" />
            <mxPoint x="750" y="510" as="targetPoint" />
            <Array as="points">
              <mxPoint x="910" y="480" />
            </Array>
          </mxGeometry>
        </mxCell>
        <mxCell id="RlmKdGRw48nTEU992F2d-42" value="" style="endArrow=diamondThin;endFill=1;endSize=24;html=1;rounded=0;fontFamily=Helvetica;fontSize=15;exitX=0.4;exitY=0.006;exitDx=0;exitDy=0;exitPerimeter=0;entryX=0.58;entryY=1.154;entryDx=0;entryDy=0;entryPerimeter=0;" parent="1" source="FVFhTPiEFMbTSJ4EKH3l-37" target="FVFhTPiEFMbTSJ4EKH3l-17" edge="1">
          <mxGeometry width="160" relative="1" as="geometry">
            <mxPoint x="1010" y="570" as="sourcePoint" />
            <mxPoint x="1170" y="570" as="targetPoint" />
          </mxGeometry>
        </mxCell>
        <mxCell id="RlmKdGRw48nTEU992F2d-43" value="" style="endArrow=diamondThin;endFill=1;endSize=24;html=1;rounded=0;fontFamily=Helvetica;fontSize=15;entryX=1;entryY=0.5;entryDx=0;entryDy=0;exitX=0.25;exitY=0;exitDx=0;exitDy=0;" parent="1" source="FVFhTPiEFMbTSJ4EKH3l-41" target="FVFhTPiEFMbTSJ4EKH3l-17" edge="1">
          <mxGeometry width="160" relative="1" as="geometry">
            <mxPoint x="1160" y="570" as="sourcePoint" />
            <mxPoint x="1320" y="570" as="targetPoint" />
          </mxGeometry>
        </mxCell>
      </root>
    </mxGraphModel>
  </diagram>
  <diagram id="KcXAkJ5OaPPNHCgz1UiR" name="Page-3">
    <mxGraphModel dx="1673" dy="941" grid="0" gridSize="10" guides="1" tooltips="1" connect="1" arrows="1" fold="1" page="1" pageScale="1" pageWidth="3300" pageHeight="4681" math="0" shadow="0">
      <root>
        <mxCell id="0" />
        <mxCell id="1" parent="0" />
        <mxCell id="4-BuA-IfsXi33SJ4NsPN-5" value="cocoMart website" style="shape=umlFrame;whiteSpace=wrap;html=1;fillStyle=auto;fontFamily=Helvetica;fontSize=17;width=106;height=65;" vertex="1" parent="1">
          <mxGeometry x="447" y="27" width="516" height="854" as="geometry" />
        </mxCell>
        <mxCell id="4-BuA-IfsXi33SJ4NsPN-6" value="Customer&amp;nbsp;" style="shape=umlActor;verticalLabelPosition=bottom;verticalAlign=top;html=1;fillStyle=auto;fontFamily=Helvetica;fontSize=17;fillColor=#0EE891;strokeColor=#82b366;" vertex="1" parent="1">
          <mxGeometry x="300" y="317" width="54" height="119" as="geometry" />
        </mxCell>
        <mxCell id="4-BuA-IfsXi33SJ4NsPN-11" value="Coconut Biproduct company&lt;br&gt;Admin" style="shape=umlActor;verticalLabelPosition=bottom;verticalAlign=top;html=1;fillStyle=auto;fontFamily=Helvetica;fontSize=17;fillColor=#3F6CE8;strokeColor=#6283B3;" vertex="1" parent="1">
          <mxGeometry x="1181" y="461" width="58" height="114" as="geometry" />
        </mxCell>
        <mxCell id="4-BuA-IfsXi33SJ4NsPN-14" value="user Login" style="ellipse;whiteSpace=wrap;html=1;fillStyle=auto;fontFamily=Helvetica;fontSize=17;fillColor=#0EE891;" vertex="1" parent="1">
          <mxGeometry x="556" y="141" width="116" height="63" as="geometry" />
        </mxCell>
        <mxCell id="4-BuA-IfsXi33SJ4NsPN-15" value="View Biproducts" style="ellipse;whiteSpace=wrap;html=1;fillStyle=auto;fontFamily=Helvetica;fontSize=17;fillColor=#0EE891;" vertex="1" parent="1">
          <mxGeometry x="557.5" y="224" width="115" height="65" as="geometry" />
        </mxCell>
        <mxCell id="4-BuA-IfsXi33SJ4NsPN-16" value="Add to cart" style="ellipse;whiteSpace=wrap;html=1;fillStyle=auto;fontFamily=Helvetica;fontSize=17;fillColor=#0EE891;" vertex="1" parent="1">
          <mxGeometry x="551" y="329" width="118.5" height="62" as="geometry" />
        </mxCell>
        <mxCell id="4-BuA-IfsXi33SJ4NsPN-17" value="Order products" style="ellipse;whiteSpace=wrap;html=1;fillStyle=auto;fontFamily=Helvetica;fontSize=17;fillColor=#0EE891;" vertex="1" parent="1">
          <mxGeometry x="553" y="491" width="114.5" height="62" as="geometry" />
        </mxCell>
        <mxCell id="4-BuA-IfsXi33SJ4NsPN-22" value="" style="endArrow=none;html=1;rounded=0;fontFamily=Helvetica;fontSize=17;entryX=0;entryY=0.5;entryDx=0;entryDy=0;exitX=1;exitY=0.3333333333333333;exitDx=0;exitDy=0;exitPerimeter=0;" edge="1" parent="1" source="4-BuA-IfsXi33SJ4NsPN-6" target="4-BuA-IfsXi33SJ4NsPN-14">
          <mxGeometry width="50" height="50" relative="1" as="geometry">
            <mxPoint x="697" y="526" as="sourcePoint" />
            <mxPoint x="747" y="476" as="targetPoint" />
            <Array as="points" />
          </mxGeometry>
        </mxCell>
        <mxCell id="4-BuA-IfsXi33SJ4NsPN-23" value="" style="endArrow=none;html=1;rounded=0;fontFamily=Helvetica;fontSize=17;exitX=1;exitY=0.3333333333333333;exitDx=0;exitDy=0;exitPerimeter=0;" edge="1" parent="1" source="4-BuA-IfsXi33SJ4NsPN-6" target="4-BuA-IfsXi33SJ4NsPN-15">
          <mxGeometry width="50" height="50" relative="1" as="geometry">
            <mxPoint x="697" y="526" as="sourcePoint" />
            <mxPoint x="747" y="476" as="targetPoint" />
          </mxGeometry>
        </mxCell>
        <mxCell id="4-BuA-IfsXi33SJ4NsPN-25" value="" style="endArrow=none;html=1;rounded=0;fontFamily=Helvetica;fontSize=17;exitX=1;exitY=0.3333333333333333;exitDx=0;exitDy=0;exitPerimeter=0;entryX=0;entryY=0.5;entryDx=0;entryDy=0;" edge="1" parent="1" source="4-BuA-IfsXi33SJ4NsPN-6" target="4-BuA-IfsXi33SJ4NsPN-16">
          <mxGeometry width="50" height="50" relative="1" as="geometry">
            <mxPoint x="697" y="526" as="sourcePoint" />
            <mxPoint x="747" y="476" as="targetPoint" />
          </mxGeometry>
        </mxCell>
        <mxCell id="4-BuA-IfsXi33SJ4NsPN-26" value="" style="endArrow=none;html=1;rounded=0;fontFamily=Helvetica;fontSize=17;exitX=1;exitY=0.3333333333333333;exitDx=0;exitDy=0;exitPerimeter=0;entryX=0;entryY=0.5;entryDx=0;entryDy=0;" edge="1" parent="1" source="4-BuA-IfsXi33SJ4NsPN-6" target="4-BuA-IfsXi33SJ4NsPN-17">
          <mxGeometry width="50" height="50" relative="1" as="geometry">
            <mxPoint x="697" y="526" as="sourcePoint" />
            <mxPoint x="747" y="476" as="targetPoint" />
          </mxGeometry>
        </mxCell>
        <mxCell id="4-BuA-IfsXi33SJ4NsPN-29" value="verify password" style="ellipse;whiteSpace=wrap;html=1;fillStyle=auto;fontFamily=Helvetica;fontSize=17;fillColor=#0EE891;" vertex="1" parent="1">
          <mxGeometry x="764" y="47" width="98.75" height="60" as="geometry" />
        </mxCell>
        <mxCell id="4-BuA-IfsXi33SJ4NsPN-30" value="display login error" style="ellipse;whiteSpace=wrap;html=1;fillStyle=auto;fontFamily=Helvetica;fontSize=17;fillColor=#0EE891;" vertex="1" parent="1">
          <mxGeometry x="764" y="117" width="106.87" height="64" as="geometry" />
        </mxCell>
        <mxCell id="4-BuA-IfsXi33SJ4NsPN-31" value="&amp;lt;&amp;lt;include&amp;gt;&amp;gt;" style="endArrow=open;endSize=12;dashed=1;html=1;rounded=0;fontFamily=Helvetica;fontSize=17;exitX=1;exitY=0;exitDx=0;exitDy=0;entryX=0;entryY=0.5;entryDx=0;entryDy=0;" edge="1" parent="1" source="4-BuA-IfsXi33SJ4NsPN-14" target="4-BuA-IfsXi33SJ4NsPN-29">
          <mxGeometry width="160" relative="1" as="geometry">
            <mxPoint x="601" y="222" as="sourcePoint" />
            <mxPoint x="761" y="222" as="targetPoint" />
          </mxGeometry>
        </mxCell>
        <mxCell id="4-BuA-IfsXi33SJ4NsPN-32" value="Extends" style="endArrow=block;endSize=16;endFill=0;html=1;rounded=0;fontFamily=Helvetica;fontSize=17;exitX=0;exitY=0.5;exitDx=0;exitDy=0;" edge="1" parent="1" source="4-BuA-IfsXi33SJ4NsPN-30" target="4-BuA-IfsXi33SJ4NsPN-14">
          <mxGeometry width="160" relative="1" as="geometry">
            <mxPoint x="642" y="471" as="sourcePoint" />
            <mxPoint x="802" y="471" as="targetPoint" />
          </mxGeometry>
        </mxCell>
        <mxCell id="4-BuA-IfsXi33SJ4NsPN-33" value="User registration" style="ellipse;whiteSpace=wrap;html=1;fillStyle=auto;fontFamily=Helvetica;fontSize=17;fillColor=#0EE891;" vertex="1" parent="1">
          <mxGeometry x="565" y="37" width="113" height="64" as="geometry" />
        </mxCell>
        <mxCell id="4-BuA-IfsXi33SJ4NsPN-34" value="" style="endArrow=classic;html=1;rounded=0;fontFamily=Helvetica;fontSize=17;exitX=1;exitY=0.3333333333333333;exitDx=0;exitDy=0;exitPerimeter=0;entryX=0;entryY=0.5;entryDx=0;entryDy=0;" edge="1" parent="1" source="4-BuA-IfsXi33SJ4NsPN-6" target="4-BuA-IfsXi33SJ4NsPN-33">
          <mxGeometry width="50" height="50" relative="1" as="geometry">
            <mxPoint x="697" y="486" as="sourcePoint" />
            <mxPoint x="747" y="436" as="targetPoint" />
          </mxGeometry>
        </mxCell>
        <mxCell id="4-BuA-IfsXi33SJ4NsPN-35" value="Add/update/Delete&lt;br&gt;categories" style="ellipse;whiteSpace=wrap;html=1;fillStyle=auto;fontFamily=Helvetica;fontSize=17;fillColor=#7BB5E8;" vertex="1" parent="1">
          <mxGeometry x="744.25" y="210" width="149.5" height="88" as="geometry" />
        </mxCell>
        <mxCell id="4-BuA-IfsXi33SJ4NsPN-37" value="Add/update/Delete&lt;br&gt;brands" style="ellipse;whiteSpace=wrap;html=1;fillStyle=auto;fontFamily=Helvetica;fontSize=17;fillColor=#7BB5E8;" vertex="1" parent="1">
          <mxGeometry x="741.25" y="305" width="155.5" height="79" as="geometry" />
        </mxCell>
        <mxCell id="4-BuA-IfsXi33SJ4NsPN-38" value="Add/update/Delete&lt;br&gt;Biproducts" style="ellipse;whiteSpace=wrap;html=1;fillStyle=auto;fontFamily=Helvetica;fontSize=17;fillColor=#7BB5E8;" vertex="1" parent="1">
          <mxGeometry x="740" y="394" width="163.5" height="86" as="geometry" />
        </mxCell>
        <mxCell id="4-BuA-IfsXi33SJ4NsPN-39" value="View registered customers/admins" style="ellipse;whiteSpace=wrap;html=1;fillStyle=auto;fontFamily=Helvetica;fontSize=17;fillColor=#7BB5E8;" vertex="1" parent="1">
          <mxGeometry x="715.25" y="495" width="213" height="80" as="geometry" />
        </mxCell>
        <mxCell id="4-BuA-IfsXi33SJ4NsPN-40" value="admin logout" style="ellipse;whiteSpace=wrap;html=1;fillStyle=auto;fontFamily=Helvetica;fontSize=17;fillColor=#7BB5E8;" vertex="1" parent="1">
          <mxGeometry x="757" y="777" width="133" height="63" as="geometry" />
        </mxCell>
        <mxCell id="4-BuA-IfsXi33SJ4NsPN-42" value="View / delete order" style="ellipse;whiteSpace=wrap;html=1;fillStyle=auto;fontFamily=Helvetica;fontSize=17;fillColor=#0EE891;" vertex="1" parent="1">
          <mxGeometry x="549.75" y="570" width="121" height="69" as="geometry" />
        </mxCell>
        <mxCell id="4-BuA-IfsXi33SJ4NsPN-43" value="Delete/update cart" style="ellipse;whiteSpace=wrap;html=1;fillStyle=auto;fontFamily=Helvetica;fontSize=17;fillColor=#0EE891;" vertex="1" parent="1">
          <mxGeometry x="553.5" y="406" width="118.5" height="68" as="geometry" />
        </mxCell>
        <mxCell id="4-BuA-IfsXi33SJ4NsPN-45" value="user logout" style="ellipse;whiteSpace=wrap;html=1;fillStyle=auto;fontFamily=Helvetica;fontSize=17;fillColor=#0EE891;" vertex="1" parent="1">
          <mxGeometry x="557.5" y="651" width="100.68" height="64" as="geometry" />
        </mxCell>
        <mxCell id="4-BuA-IfsXi33SJ4NsPN-46" value="admin login/registration" style="ellipse;whiteSpace=wrap;html=1;fillStyle=auto;fontFamily=Helvetica;fontSize=17;fillColor=#7BB5E8;" vertex="1" parent="1">
          <mxGeometry x="753.25" y="684" width="140.5" height="76" as="geometry" />
        </mxCell>
        <mxCell id="4-BuA-IfsXi33SJ4NsPN-47" value="view/delete customer order" style="ellipse;whiteSpace=wrap;html=1;fillStyle=auto;fontFamily=Helvetica;fontSize=17;fillColor=#7BB5E8;" vertex="1" parent="1">
          <mxGeometry x="751.5" y="591" width="140.5" height="76" as="geometry" />
        </mxCell>
        <mxCell id="4-BuA-IfsXi33SJ4NsPN-48" value="" style="endArrow=none;html=1;rounded=0;fontFamily=Helvetica;fontSize=17;entryX=1;entryY=0.5;entryDx=0;entryDy=0;exitX=0;exitY=0.3333333333333333;exitDx=0;exitDy=0;exitPerimeter=0;" edge="1" parent="1" source="4-BuA-IfsXi33SJ4NsPN-11" target="4-BuA-IfsXi33SJ4NsPN-35">
          <mxGeometry width="50" height="50" relative="1" as="geometry">
            <mxPoint x="686" y="435" as="sourcePoint" />
            <mxPoint x="736" y="385" as="targetPoint" />
          </mxGeometry>
        </mxCell>
        <mxCell id="4-BuA-IfsXi33SJ4NsPN-49" value="" style="endArrow=none;html=1;rounded=0;fontFamily=Helvetica;fontSize=17;entryX=1;entryY=0.5;entryDx=0;entryDy=0;exitX=0;exitY=0.3333333333333333;exitDx=0;exitDy=0;exitPerimeter=0;" edge="1" parent="1" source="4-BuA-IfsXi33SJ4NsPN-11" target="4-BuA-IfsXi33SJ4NsPN-37">
          <mxGeometry width="50" height="50" relative="1" as="geometry">
            <mxPoint x="686" y="435" as="sourcePoint" />
            <mxPoint x="736" y="385" as="targetPoint" />
          </mxGeometry>
        </mxCell>
        <mxCell id="4-BuA-IfsXi33SJ4NsPN-50" value="" style="endArrow=none;html=1;rounded=0;fontFamily=Helvetica;fontSize=17;entryX=1;entryY=0.5;entryDx=0;entryDy=0;exitX=0;exitY=0.3333333333333333;exitDx=0;exitDy=0;exitPerimeter=0;" edge="1" parent="1" source="4-BuA-IfsXi33SJ4NsPN-11" target="4-BuA-IfsXi33SJ4NsPN-38">
          <mxGeometry width="50" height="50" relative="1" as="geometry">
            <mxPoint x="1063" y="311" as="sourcePoint" />
            <mxPoint x="736" y="385" as="targetPoint" />
          </mxGeometry>
        </mxCell>
        <mxCell id="4-BuA-IfsXi33SJ4NsPN-51" value="" style="endArrow=none;html=1;rounded=0;fontFamily=Helvetica;fontSize=17;entryX=0;entryY=0.3333333333333333;entryDx=0;entryDy=0;entryPerimeter=0;exitX=1;exitY=0.5;exitDx=0;exitDy=0;" edge="1" parent="1" source="4-BuA-IfsXi33SJ4NsPN-39" target="4-BuA-IfsXi33SJ4NsPN-11">
          <mxGeometry width="50" height="50" relative="1" as="geometry">
            <mxPoint x="686" y="435" as="sourcePoint" />
            <mxPoint x="736" y="385" as="targetPoint" />
          </mxGeometry>
        </mxCell>
        <mxCell id="4-BuA-IfsXi33SJ4NsPN-52" value="" style="endArrow=none;html=1;rounded=0;fontFamily=Helvetica;fontSize=17;exitX=1;exitY=0.5;exitDx=0;exitDy=0;entryX=0;entryY=0.3333333333333333;entryDx=0;entryDy=0;entryPerimeter=0;" edge="1" parent="1" source="4-BuA-IfsXi33SJ4NsPN-47" target="4-BuA-IfsXi33SJ4NsPN-11">
          <mxGeometry width="50" height="50" relative="1" as="geometry">
            <mxPoint x="686" y="435" as="sourcePoint" />
            <mxPoint x="736" y="385" as="targetPoint" />
          </mxGeometry>
        </mxCell>
        <mxCell id="4-BuA-IfsXi33SJ4NsPN-53" value="" style="endArrow=none;html=1;rounded=0;fontFamily=Helvetica;fontSize=17;exitX=1;exitY=0.5;exitDx=0;exitDy=0;entryX=0;entryY=0.3333333333333333;entryDx=0;entryDy=0;entryPerimeter=0;" edge="1" parent="1" source="4-BuA-IfsXi33SJ4NsPN-46" target="4-BuA-IfsXi33SJ4NsPN-11">
          <mxGeometry width="50" height="50" relative="1" as="geometry">
            <mxPoint x="686" y="435" as="sourcePoint" />
            <mxPoint x="736" y="385" as="targetPoint" />
          </mxGeometry>
        </mxCell>
        <mxCell id="4-BuA-IfsXi33SJ4NsPN-54" value="" style="endArrow=none;html=1;rounded=0;fontFamily=Helvetica;fontSize=17;entryX=0;entryY=0.3333333333333333;entryDx=0;entryDy=0;entryPerimeter=0;exitX=1;exitY=0.5;exitDx=0;exitDy=0;" edge="1" parent="1" source="4-BuA-IfsXi33SJ4NsPN-40" target="4-BuA-IfsXi33SJ4NsPN-11">
          <mxGeometry width="50" height="50" relative="1" as="geometry">
            <mxPoint x="686" y="435" as="sourcePoint" />
            <mxPoint x="736" y="385" as="targetPoint" />
          </mxGeometry>
        </mxCell>
      </root>
    </mxGraphModel>
  </diagram>
</mxfile>
